<svg width="376" height="812" viewBox="0 0 376 812" fill="none" xmlns="http://www.w3.org/2000/svg">
<path d="M189.39 699.788L188.352 695.443" stroke="url(#paint0_linear_461_2925)" stroke-width="2" stroke-linecap="round" stroke-linejoin="round"/>
<path d="M194.609 699.788L195.648 695.443" stroke="url(#paint1_linear_461_2925)" stroke-width="2" stroke-linecap="round" stroke-linejoin="round"/>
<path d="M186.236 699.788H197.764C199.836 699.788 201.584 701.328 201.848 703.382L202.868 711.361C203.182 713.822 201.265 716 198.784 716H185.214C182.734 716 180.817 713.822 181.132 711.361L182.152 703.382C182.414 701.328 184.164 699.788 186.236 699.788Z" stroke="#7569F4" stroke-width="2" stroke-linecap="round" stroke-linejoin="round"/>
<path d="M201.509 692L199.977 694.064C199.333 694.931 198.317 695.443 197.237 695.443H186.76C185.681 695.443 184.665 694.931 184.021 694.064L182.489 692" stroke="#7569F4" stroke-width="2" stroke-linecap="round" stroke-linejoin="round"/>
<path fill-rule="evenodd" clip-rule="evenodd" d="M196.216 707.893C196.216 705.565 194.328 703.677 192 703.677C189.672 703.677 187.784 705.565 187.784 707.893C187.784 710.221 189.672 712.109 192 712.109C194.328 712.109 196.216 710.221 196.216 707.893Z" stroke="url(#paint2_linear_461_2925)" stroke-width="2" stroke-linecap="round" stroke-linejoin="round"/>
<path d="M192 707.01V703.678" stroke="url(#paint3_linear_461_2925)" stroke-width="2" stroke-linecap="round" stroke-linejoin="round"/>
<path d="M81.1865 737.887L82.2477 735.203C82.5318 734.484 83.2259 734.013 83.9978 734.013H92.2318C93.0037 734.013 93.6977 734.484 93.9818 735.203L95.043 737.887" stroke="#7569F4" stroke-width="2" stroke-linecap="round" stroke-linejoin="round"/>
<path d="M95.045 726.521H92.6191" stroke="url(#paint4_linear_461_2925)" stroke-width="2" stroke-linecap="round" stroke-linejoin="round"/>
<path d="M88.0332 740.896V743.907" stroke="url(#paint5_linear_461_2925)" stroke-width="2" stroke-linecap="round" stroke-linejoin="round"/>
<path d="M91.5547 740.897C91.5547 742.559 92.9026 743.907 94.5658 743.907" stroke="url(#paint6_linear_461_2925)" stroke-width="2" stroke-linecap="round" stroke-linejoin="round"/>
<path d="M84.3291 740.897C84.3291 742.559 82.9812 743.907 81.3193 743.907" stroke="url(#paint7_linear_461_2925)" stroke-width="2" stroke-linecap="round" stroke-linejoin="round"/>
<path fill-rule="evenodd" clip-rule="evenodd" d="M99.7216 733.992C99.3687 735.838 98.314 737.439 95.3197 737.847C94.6841 737.967 89.8348 738.001 87.9952 738.002C86.1556 738.003 81.7785 738.002 80.6875 737.85C77.8399 737.476 76.6957 736.027 76.2715 733.992C75.9095 731.378 75.9095 728.726 76.2715 726.112C76.5309 724.982 77.1225 722.713 80.6875 722.249C81.2531 722.14 85.2864 722.098 87.9952 722.093C90.8752 722.088 95.0448 722.179 95.3197 722.247C98.8873 722.714 99.4893 725.051 99.7228 726.112C100.085 728.727 100.1 731.378 99.7216 733.992Z" stroke="#7569F4" stroke-width="2"/>
<g clip-path="url(#clip0_461_2925)">
<path d="M315.483 80.1083L316.81 76.7531C317.165 75.8548 318.033 75.2661 318.997 75.2661H329.29C330.255 75.2661 331.122 75.8548 331.477 76.7531L332.804 80.1083" stroke="#7569F4" stroke-width="2" stroke-linecap="round" stroke-linejoin="round"/>
<path d="M332.807 65.9009H329.774" stroke="url(#paint8_linear_461_2925)" stroke-width="2" stroke-linecap="round" stroke-linejoin="round"/>
<path d="M324.041 83.8701V87.634" stroke="url(#paint9_linear_461_2925)" stroke-width="2" stroke-linecap="round" stroke-linejoin="round"/>
<path d="M328.443 83.8721C328.443 85.9494 330.128 87.6342 332.207 87.6342" stroke="url(#paint10_linear_461_2925)" stroke-width="2" stroke-linecap="round" stroke-linejoin="round"/>
<path d="M319.412 83.8721C319.412 85.9494 317.727 87.6342 315.649 87.6342" stroke="url(#paint11_linear_461_2925)" stroke-width="2" stroke-linecap="round" stroke-linejoin="round"/>
<path fill-rule="evenodd" clip-rule="evenodd" d="M338.652 75.2401C338.211 77.5476 336.893 79.5487 333.15 80.0596C332.355 80.2087 326.294 80.2509 323.994 80.2526C321.695 80.2541 316.223 80.2526 314.859 80.0627C311.3 79.5957 309.87 77.7844 309.339 75.2401C308.887 71.9724 308.887 68.6579 309.339 65.3903C309.664 63.9778 310.403 61.1416 314.859 60.5611C315.566 60.4249 320.608 60.373 323.994 60.3665C327.594 60.36 332.806 60.4735 333.15 60.5594C337.609 61.1432 338.362 64.0638 338.654 65.3903C339.106 68.6595 339.126 71.9724 338.652 75.2401Z" stroke="#7569F4" stroke-width="2"/>
</g>
<path fill-rule="evenodd" clip-rule="evenodd" d="M318.327 732.397C319.169 731.493 320.36 731 321.734 731H330.267C331.644 731 332.835 731.493 333.678 732.398C334.513 733.295 334.931 734.516 334.931 735.85V752.15C334.931 753.484 334.513 754.705 333.678 755.602C332.835 756.507 331.643 757 330.266 757H321.734C320.358 757 319.166 756.507 318.324 755.602C317.489 754.705 317.071 753.484 317.071 752.15V735.85C317.071 734.515 317.491 733.294 318.327 732.397ZM319.79 733.761C319.357 734.226 319.071 734.93 319.071 735.85V752.15C319.071 753.071 319.356 753.775 319.788 754.24C320.212 754.696 320.852 755 321.734 755H330.266C331.149 755 331.789 754.695 332.214 754.239C332.646 753.775 332.931 753.071 332.931 752.15V735.85C332.931 734.929 332.646 734.225 332.214 733.761C331.79 733.305 331.149 733 330.267 733H321.734C320.856 733 320.216 733.304 319.79 733.761Z" fill="#7569F4"/>
<path fill-rule="evenodd" clip-rule="evenodd" d="M326.708 737.965C326.708 737.413 327.156 736.965 327.708 736.965H330.055C330.607 736.965 331.055 737.413 331.055 737.965C331.055 738.518 330.607 738.965 330.055 738.965H327.708C327.156 738.965 326.708 738.518 326.708 737.965Z" fill="url(#paint12_linear_461_2925)"/>
<path fill-rule="evenodd" clip-rule="evenodd" d="M326.708 744.664C326.708 744.111 327.156 743.664 327.708 743.664H330.055C330.607 743.664 331.055 744.111 331.055 744.664C331.055 745.216 330.607 745.664 330.055 745.664H327.708C327.156 745.664 326.708 745.216 326.708 744.664Z" fill="url(#paint13_linear_461_2925)"/>
<path fill-rule="evenodd" clip-rule="evenodd" d="M317.07 741.316C317.07 740.764 317.518 740.316 318.07 740.316H333.931C334.483 740.316 334.931 740.764 334.931 741.316C334.931 741.868 334.483 742.316 333.931 742.316H318.07C317.518 742.316 317.07 741.868 317.07 741.316Z" fill="#7569F4"/>
<path fill-rule="evenodd" clip-rule="evenodd" d="M107.327 45.3975C108.169 44.4932 109.36 44 110.734 44H119.267C120.644 44 121.835 44.4927 122.678 45.3978C123.513 46.2949 123.931 47.516 123.931 48.8504V65.1496C123.931 66.484 123.513 67.7052 122.678 68.6023C121.835 69.5075 120.643 70 119.266 70H110.734C109.358 70 108.166 69.5072 107.324 68.6021C106.489 67.7051 106.071 66.484 106.071 65.1496V48.8504C106.071 47.5148 106.491 46.2939 107.327 45.3975ZM108.79 46.7609C108.357 47.2257 108.071 47.93 108.071 48.8504V65.1496C108.071 66.0712 108.356 66.7753 108.788 67.2396C109.212 67.6956 109.852 68 110.734 68H119.266C120.149 68 120.789 67.6953 121.214 67.2393C121.646 66.7752 121.931 66.0712 121.931 65.1496V48.8504C121.931 47.9288 121.646 47.2247 121.214 46.7606C120.79 46.3045 120.149 46 119.267 46H110.734C109.856 46 109.216 46.304 108.79 46.7609Z" fill="#7569F4"/>
<path fill-rule="evenodd" clip-rule="evenodd" d="M115.708 50.9653C115.708 50.4131 116.156 49.9653 116.708 49.9653H119.055C119.607 49.9653 120.055 50.4131 120.055 50.9653C120.055 51.5176 119.607 51.9653 119.055 51.9653H116.708C116.156 51.9653 115.708 51.5176 115.708 50.9653Z" fill="url(#paint14_linear_461_2925)"/>
<path fill-rule="evenodd" clip-rule="evenodd" d="M115.708 57.6636C115.708 57.1112 116.156 56.6636 116.708 56.6636H119.055C119.607 56.6636 120.055 57.1112 120.055 57.6636C120.055 58.2158 119.607 58.6636 119.055 58.6636H116.708C116.156 58.6636 115.708 58.2158 115.708 57.6636Z" fill="url(#paint15_linear_461_2925)"/>
<path fill-rule="evenodd" clip-rule="evenodd" d="M106.07 54.3159C106.07 53.7636 106.518 53.3159 107.07 53.3159H122.931C123.483 53.3159 123.931 53.7636 123.931 54.3159C123.931 54.8682 123.483 55.3159 122.931 55.3159H107.07C106.518 55.3159 106.07 54.8682 106.07 54.3159Z" fill="#7569F4"/>
<path fill-rule="evenodd" clip-rule="evenodd" d="M199.146 128.922C199.837 128.922 200.396 129.482 200.396 130.172V133C200.396 133.69 199.837 134.25 199.146 134.25C198.456 134.25 197.896 133.69 197.896 133V130.172C197.896 129.482 198.456 128.922 199.146 128.922ZM218.851 128.922C219.542 128.922 220.101 129.482 220.101 130.172V133C220.101 133.69 219.542 134.25 218.851 134.25C218.161 134.25 217.601 133.69 217.601 133V130.172C217.601 129.482 218.161 128.922 218.851 128.922Z" fill="url(#paint16_linear_461_2925)"/>
<path fill-rule="evenodd" clip-rule="evenodd" d="M195.886 103.772C197.097 102.473 198.813 101.758 200.809 101.758H217.189C219.189 101.758 220.906 102.473 222.117 103.773C223.318 105.063 223.928 106.828 223.928 108.776V124.597C223.928 126.545 223.318 128.31 222.117 129.6C220.906 130.9 219.188 131.615 217.187 131.615H200.809C198.809 131.615 197.092 130.9 195.882 129.6C194.681 128.31 194.071 126.544 194.071 124.597V108.776C194.071 106.827 194.684 105.062 195.886 103.772ZM197.715 105.477C197.016 106.227 196.571 107.346 196.571 108.776V124.597C196.571 126.028 197.014 127.147 197.712 127.896C198.399 128.635 199.426 129.115 200.809 129.115H217.187C218.571 129.115 219.599 128.635 220.287 127.896C220.985 127.147 221.428 126.028 221.428 124.597V108.776C221.428 107.345 220.985 106.226 220.287 105.476C219.599 104.737 218.572 104.258 217.189 104.258H200.809C199.432 104.258 198.404 104.737 197.715 105.477Z" fill="#7569F4"/>
<path fill-rule="evenodd" clip-rule="evenodd" d="M204.765 113.547C205.455 113.547 206.015 114.107 206.015 114.797V118.577C206.015 119.267 205.455 119.827 204.765 119.827C204.074 119.827 203.515 119.267 203.515 118.577V114.797C203.515 114.107 204.074 113.547 204.765 113.547ZM213.234 113.547C213.924 113.547 214.484 114.107 214.484 114.797V118.577C214.484 119.267 213.924 119.827 213.234 119.827C212.544 119.827 211.984 119.267 211.984 118.577V114.797C211.984 114.107 212.544 113.547 213.234 113.547Z" fill="url(#paint17_linear_461_2925)"/>
<path fill-rule="evenodd" clip-rule="evenodd" d="M208.997 101.75C209.688 101.75 210.247 102.31 210.247 103V130.368C210.247 131.059 209.688 131.618 208.997 131.618C208.307 131.618 207.747 131.059 207.747 130.368V103C207.747 102.31 208.307 101.75 208.997 101.75Z" fill="#7569F4"/>
<path d="M84 146L84 140" stroke="url(#paint18_linear_461_2925)" stroke-width="2" stroke-linecap="round" stroke-linejoin="round"/>
<path d="M95.1979 146V141.44C95.1979 140.281 95.543 139.15 96.1878 138.187L97.856 135.7C98.502 134.739 98.8459 133.607 98.8459 132.449L98.8467 123.544C98.8467 122.691 98.1554 122 97.303 122H92.9207C92.0671 122 91.377 122.691 91.377 123.544V132.738" stroke="#7569F4" stroke-width="2" stroke-linecap="round" stroke-linejoin="round"/>
<path d="M81.1064 146H97.5834" stroke="#7569F4" stroke-width="2" stroke-linecap="round" stroke-linejoin="round"/>
<path d="M95.2709 132.737H79.1533V133.823C79.1533 137.119 81.8258 139.792 85.1209 139.792H91.5166" stroke="#7569F4" stroke-width="2" stroke-linecap="round" stroke-linejoin="round"/>
<path d="M94.9053 125.656H98.8445" stroke="url(#paint19_linear_461_2925)" stroke-width="1.5" stroke-linecap="round" stroke-linejoin="round"/>
<path d="M81.1064 126.432L88.8902 132.737" stroke="url(#paint20_linear_461_2925)" stroke-width="2" stroke-linecap="round" stroke-linejoin="round"/>
<path fill-rule="evenodd" clip-rule="evenodd" d="M289.91 192.311C294.009 190.201 296.562 185.556 295.507 180.547C294.64 176.447 291.288 173.184 287.134 172.347C280.154 170.953 273.979 176.168 273.979 182.81C273.979 186.942 276.354 190.516 279.83 192.295V194.667C279.83 197.39 282.097 199.62 284.871 199.62C287.643 199.62 289.91 197.39 289.91 194.667V192.311ZM281.411 190.305H288.365C291.731 188.807 293.904 185.106 293.06 181.056C292.396 177.923 289.812 175.397 286.635 174.758C281.227 173.675 276.479 177.694 276.479 182.81C276.479 186.162 278.502 189.039 281.411 190.305ZM287.41 192.765H282.33V194.667C282.33 196.029 283.476 197.16 284.871 197.16C286.264 197.16 287.41 196.029 287.41 194.667V192.765Z" fill="#7569F4"/>
<path d="M269.642 182.917C269.642 182.217 270.201 181.667 270.892 181.667H271.052C271.741 181.667 272.302 182.217 272.302 182.917C272.302 183.601 271.741 184.167 271.052 184.167H270.892C270.201 184.167 269.642 183.601 269.642 182.917Z" fill="url(#paint21_linear_461_2925)"/>
<path d="M300.322 182.917C300.322 183.601 299.764 184.167 299.072 184.167H298.95C298.259 184.167 297.7 183.601 297.7 182.917C297.7 182.217 298.259 181.667 298.95 181.667H299.072C299.764 181.667 300.322 182.217 300.322 182.917Z" fill="url(#paint22_linear_461_2925)"/>
<path d="M274.135 172.068C274.624 171.568 275.415 171.568 275.903 172.068L276.017 172.168C276.505 172.668 276.505 173.451 276.017 173.935C275.529 174.434 274.737 174.434 274.249 173.935L274.135 173.835C273.646 173.335 273.646 172.551 274.135 172.068Z" fill="url(#paint23_linear_461_2925)"/>
<path d="M295.83 193.751C295.342 194.251 294.55 194.251 294.062 193.751L293.976 193.668C293.487 193.185 293.487 192.384 293.976 191.901C294.464 191.418 295.254 191.418 295.742 191.901L295.83 191.984C296.317 192.468 296.317 193.268 295.83 193.751Z" fill="url(#paint24_linear_461_2925)"/>
<path d="M295.83 172.068C296.318 172.551 296.318 173.335 295.83 173.835L295.717 173.935C295.228 174.434 294.436 174.434 293.948 173.935C293.46 173.451 293.46 172.668 293.948 172.168L294.061 172.068C294.55 171.568 295.341 171.568 295.83 172.068Z" fill="url(#paint25_linear_461_2925)"/>
<path d="M274.135 193.751C273.646 193.268 273.646 192.468 274.135 191.984L274.223 191.901C274.712 191.418 275.502 191.418 275.99 191.901C276.479 192.384 276.479 193.185 275.99 193.668L275.903 193.751C275.415 194.251 274.624 194.251 274.135 193.751Z" fill="url(#paint26_linear_461_2925)"/>
<path d="M284.983 167.568C285.674 167.568 286.233 168.135 286.233 168.818V168.985C286.233 169.668 285.674 170.235 284.983 170.235C284.293 170.235 283.733 169.668 283.733 168.985V168.818C283.733 168.135 284.293 167.568 284.983 167.568Z" fill="url(#paint27_linear_461_2925)"/>
<path d="M281.529 637.064V632.222M289.358 637.064V632.222" stroke="url(#paint28_linear_461_2925)" stroke-width="2" stroke-linecap="round" stroke-linejoin="round"/>
<path d="M267.312 632.854V653.819C267.312 657.908 270.627 661.223 274.716 661.223H296.174C300.263 661.223 303.579 657.908 303.579 653.819V632.854" stroke="#7569F4" stroke-width="2" stroke-linecap="round" stroke-linejoin="round"/>
<path d="M307.194 635.717L289.007 621.32C286.919 619.669 283.97 619.669 281.882 621.32L263.694 635.717" stroke="#7569F4" stroke-width="2" stroke-linecap="round" stroke-linejoin="round"/>
<path d="M285.208 649.667C280.537 649.667 276.75 646.698 276.75 643.036V638.898C276.75 638.172 277.501 637.583 278.427 637.583H291.99C292.916 637.583 293.667 638.172 293.667 638.898V643.036C293.667 646.698 289.88 649.667 285.208 649.667Z" stroke="#7569F4" stroke-width="2" stroke-linecap="round" stroke-linejoin="round"/>
<path d="M285.443 650.752V661.225" stroke="#7569F4" stroke-width="2" stroke-linecap="round" stroke-linejoin="round"/>
<path d="M86.0049 627.854C86.0049 627.307 86.4527 626.854 87.0049 626.854H87.1025C87.6546 626.854 88.1025 627.307 88.1025 627.854C88.1025 628.401 87.6546 628.854 87.1025 628.854H87.0049C86.4527 628.854 86.0049 628.401 86.0049 627.854Z" fill="#7569F4"/>
<path d="M89.7998 627.854C89.7998 627.307 90.247 626.854 90.7998 626.854H90.8969C91.4489 626.854 91.8969 627.307 91.8969 627.854C91.8969 628.401 91.4489 628.854 90.8969 628.854H90.7998C90.247 628.854 89.7998 628.401 89.7998 627.854Z" fill="#7569F4"/>
<path fill-rule="evenodd" clip-rule="evenodd" d="M88.9997 619.961C93.3597 619.961 96.8935 623.494 96.8935 627.854C96.8935 632.214 93.3597 635.748 88.9997 635.748C84.6403 635.748 81.1045 632.214 81.1045 627.854C81.1045 623.494 84.6403 619.961 88.9997 619.961ZM94.8935 627.854C94.8935 624.601 92.2549 621.961 88.9997 621.961C85.7445 621.961 83.1045 624.601 83.1045 627.854C83.1045 631.108 85.7445 633.748 88.9997 633.748C92.2549 633.748 94.8935 631.108 94.8935 627.854Z" fill="url(#paint29_linear_461_2925)"/>
<path fill-rule="evenodd" clip-rule="evenodd" d="M77.987 617.054C79.2995 615.641 81.1686 614.854 83.3763 614.854H94.6224C96.8347 614.854 98.7051 615.641 100.017 617.054C101.322 618.454 102 620.387 102 622.561V633.147C102 635.321 101.322 637.254 100.017 638.654C98.7051 640.067 96.834 640.854 94.6211 640.854H83.3763C81.1641 640.854 79.2936 640.067 77.9824 638.654C76.6777 637.254 76 635.321 76 633.147V622.561C76 620.387 76.6816 618.454 77.987 617.054ZM79.4499 618.414C78.5469 619.387 78 620.801 78 622.561V633.147C78 634.907 78.5449 636.321 79.446 637.294C80.3398 638.254 81.6582 638.854 83.3763 638.854H94.6211C96.3405 638.854 97.6595 638.254 98.5533 637.294C99.4551 636.321 100 634.907 100 633.147V622.561C100 620.801 99.4551 619.387 98.5533 618.414C97.6595 617.454 96.3412 616.854 94.6224 616.854H83.3763C81.6647 616.854 80.3457 617.454 79.4499 618.414Z" fill="#7569F4"/>
<path d="M44 339.652V338.867C44 337.21 45.3432 335.867 47 335.867C48.6568 335.867 50 337.21 50 338.867V339.693" stroke="url(#paint30_linear_461_2925)" stroke-width="2" stroke-linecap="round" stroke-linejoin="round"/>
<path d="M44 338.867C44 337.21 42.6568 335.867 41 335.867C39.3431 335.867 38 337.21 38 338.867V339.681" stroke="url(#paint31_linear_461_2925)" stroke-width="2" stroke-linecap="round" stroke-linejoin="round"/>
<path d="M53.0484 349.866V347.784M34.9531 347.784V349.866" stroke="url(#paint32_linear_461_2925)" stroke-width="2" stroke-linecap="round" stroke-linejoin="round"/>
<path d="M32 342.856C32 341.982 32 341.545 32.1261 341.195C32.3415 340.597 32.8125 340.126 33.4107 339.91C33.761 339.784 34.198 339.784 35.072 339.784H52.928C53.802 339.784 54.2389 339.784 54.5893 339.91C55.1875 340.126 55.6585 340.597 55.8739 341.195C56 341.545 56 341.982 56 342.856V344.712C56 345.586 56 346.023 55.8739 346.374C55.6585 346.972 55.1875 347.443 54.5893 347.658C54.2389 347.784 53.802 347.784 52.928 347.784H35.072C34.198 347.784 33.761 347.784 33.4107 347.658C32.8125 347.443 32.3415 346.972 32.1261 346.374C32 346.023 32 345.586 32 344.712V342.856Z" stroke="#7569F4" stroke-width="2" stroke-linecap="round" stroke-linejoin="round"/>
<path d="M53.0484 339.784V333.205C53.0484 332.331 53.0484 331.894 52.9223 331.544C52.7069 330.946 52.2359 330.475 51.6377 330.259C51.2873 330.133 50.8504 330.133 49.9764 330.133H38.0251C37.1511 330.133 36.7141 330.133 36.3638 330.259C35.7656 330.475 35.2946 330.946 35.0792 331.544C34.9531 331.894 34.9531 332.331 34.9531 333.205V339.784" stroke="#7569F4" stroke-width="2" stroke-linecap="round" stroke-linejoin="round"/>
<path d="M344.44 414.934V417.302" stroke="url(#paint33_linear_461_2925)" stroke-width="2" stroke-linecap="round" stroke-linejoin="round"/>
<path d="M355.258 414.934V417.302" stroke="url(#paint34_linear_461_2925)" stroke-width="2" stroke-linecap="round" stroke-linejoin="round"/>
<path d="M358.95 404.127V400.899C358.95 399.11 358.95 398.215 358.669 397.506C358.262 396.479 357.449 395.666 356.422 395.259C355.713 394.979 354.818 394.979 353.03 394.979H346.392C344.603 394.979 343.709 394.979 342.999 395.259C341.972 395.666 341.159 396.479 340.753 397.506C340.472 398.215 340.472 399.11 340.472 400.899V404.127" stroke="url(#paint35_linear_461_2925)" stroke-width="2" stroke-linecap="round" stroke-linejoin="round"/>
<path fill-rule="evenodd" clip-rule="evenodd" d="M358.896 404.172C358.225 404.171 357.89 404.17 357.617 404.248C356.955 404.438 356.439 404.953 356.248 405.615C356.169 405.887 356.169 406.221 356.169 406.888V408.103C356.169 408.88 355.54 409.51 354.763 409.51H344.58C343.805 409.51 343.174 408.88 343.174 408.103V406.912C343.174 406.219 343.174 405.872 343.09 405.592C342.897 404.945 342.396 404.443 341.749 404.249C341.469 404.165 341.12 404.164 340.423 404.164C339.737 404.163 339.394 404.163 339.111 404.248C338.465 404.442 337.952 404.962 337.765 405.61C337.684 405.894 337.688 406.233 337.697 406.91C337.715 408.265 337.746 409.726 337.798 410.282C338.004 412.646 339.897 414.512 342.265 414.684C343.373 414.857 347.809 414.857 349.659 414.857C351.509 414.857 356.427 414.819 357.069 414.682C359.432 414.503 361.317 412.641 361.522 410.282C361.574 409.731 361.609 408.28 361.632 406.928C361.643 406.257 361.648 405.921 361.573 405.645C361.389 404.974 360.875 404.451 360.208 404.255C359.934 404.174 359.588 404.174 358.896 404.172Z" stroke="#7569F4" stroke-width="2" stroke-linecap="round" stroke-linejoin="round"/>
<path d="M329.95 551H340.049C343.579 551 345.776 553.492 345.776 557.018V568.982C345.776 572.509 343.579 575 340.048 575H329.95C326.42 575 324.224 572.509 324.224 568.982V557.018C324.224 553.492 326.43 551 329.95 551Z" stroke="#7569F4" stroke-width="2" stroke-linecap="round" stroke-linejoin="round"/>
<path d="M335 561.979C337.478 561.979 339.487 563.988 339.487 566.466C339.487 568.944 337.478 570.954 335 570.954C332.522 570.954 330.513 568.944 330.513 566.466C330.513 563.988 332.522 561.979 335 561.979Z" stroke="#7569F4" stroke-width="2" stroke-linecap="round" stroke-linejoin="round"/>
<path d="M330.583 567.189C331.09 566.614 331.771 566.253 332.467 566.134C333.268 565.999 334.123 566.173 334.845 566.681C335.312 567.015 335.74 567.256 336.381 567.256C337.021 567.256 337.449 567.015 337.916 566.681C338.389 566.347 338.92 566.158 339.456 566.105" stroke="url(#paint36_linear_461_2925)" stroke-width="2" stroke-linecap="round" stroke-linejoin="round"/>
<path d="M324.224 558.309H345.777" stroke="#7569F4" stroke-width="2" stroke-linecap="round" stroke-linejoin="round"/>
<path d="M340.903 555.041H340.917" stroke="url(#paint37_linear_461_2925)" stroke-width="2" stroke-linecap="round" stroke-linejoin="round"/>
<path d="M338.151 555.041H338.165" stroke="url(#paint38_linear_461_2925)" stroke-width="2" stroke-linecap="round" stroke-linejoin="round"/>
<path d="M329.052 555.041H331.617" stroke="url(#paint39_linear_461_2925)" stroke-width="2" stroke-linecap="round" stroke-linejoin="round"/>
<path d="M201.984 578.313V573.041" stroke="url(#paint40_linear_461_2925)" stroke-width="2" stroke-linecap="round" stroke-linejoin="round"/>
<path d="M192.42 562.19C192.746 561.031 193.803 560.228 195.008 560.228H199.497C200.7 560.228 201.755 561.027 202.083 562.184L204.468 570.621C204.811 571.831 203.898 573.032 202.639 573.026L191.885 572.977C190.636 572.972 189.736 571.779 190.072 570.577L192.42 562.19Z" stroke="#7569F4" stroke-width="2" stroke-linecap="round" stroke-linejoin="round"/>
<path d="M197.277 573.08V590.188" stroke="#7569F4" stroke-width="2" stroke-linecap="round" stroke-linejoin="round"/>
<path d="M192.185 590.228H202.372" stroke="url(#paint41_linear_461_2925)" stroke-width="2" stroke-linecap="round" stroke-linejoin="round"/>
<path fill-rule="evenodd" clip-rule="evenodd" d="M45.5426 521C43.1578 521 41.2236 522.934 41.2236 525.319V538.681C41.2236 541.066 43.1578 543 45.5426 543H56.4567C58.843 543 60.777 541.066 60.777 538.681V525.319C60.777 522.934 58.843 521 56.4567 521H45.5426ZM39.2236 525.319C39.2236 521.83 42.0532 519 45.5426 519H56.4567C59.9473 519 62.777 521.829 62.777 525.319V538.681C62.777 542.171 59.9473 545 56.4567 545H45.5426C42.0532 545 39.2236 542.17 39.2236 538.681V525.319Z" fill="#7569F4"/>
<path fill-rule="evenodd" clip-rule="evenodd" d="M44.9658 524.041C44.9658 523.488 45.4135 523.041 45.9658 523.041H45.9792C46.5314 523.041 46.9792 523.488 46.9792 524.041C46.9792 524.593 46.5314 525.041 45.9792 525.041H45.9658C45.4135 525.041 44.9658 524.593 44.9658 524.041Z" fill="url(#paint42_linear_461_2925)"/>
<path fill-rule="evenodd" clip-rule="evenodd" d="M55.0342 524.041C55.0342 523.488 55.4819 523.041 56.0342 523.041H56.0475C56.5998 523.041 57.0475 523.488 57.0475 524.041C57.0475 524.593 56.5998 525.041 56.0475 525.041H56.0342C55.4819 525.041 55.0342 524.593 55.0342 524.041Z" fill="url(#paint43_linear_461_2925)"/>
<path fill-rule="evenodd" clip-rule="evenodd" d="M50 524.041C50 523.488 50.4477 523.041 51 523.041H51.0133C51.5656 523.041 52.0133 523.488 52.0133 524.041C52.0133 524.593 51.5656 525.041 51.0133 525.041H51C50.4477 525.041 50 524.593 50 524.041Z" fill="url(#paint44_linear_461_2925)"/>
<path fill-rule="evenodd" clip-rule="evenodd" d="M39.2236 527.309C39.2236 526.756 39.6714 526.309 40.2236 526.309H61.7769C62.3293 526.309 62.7769 526.756 62.7769 527.309C62.7769 527.861 62.3293 528.309 61.7769 528.309H40.2236C39.6714 528.309 39.2236 527.861 39.2236 527.309Z" fill="#7569F4"/>
<path fill-rule="evenodd" clip-rule="evenodd" d="M45.4395 532.594C45.1974 532.897 45.0127 533.459 45.0127 534.457V536.851C45.0127 537.83 45.1967 538.372 45.4335 538.664C45.6335 538.91 46.007 539.14 46.8564 539.14H55.1461C55.9999 539.14 56.3743 538.909 56.5738 538.664C56.8097 538.373 56.9927 537.833 56.9898 536.854V536.851V534.402C56.9898 533.422 56.8069 532.878 56.5699 532.585C56.3705 532.338 55.9979 532.107 55.1461 532.107H46.8564C46.0145 532.107 45.6422 532.339 45.4395 532.594ZM43.8757 531.347C44.5769 530.467 45.6264 530.107 46.8564 530.107H55.1461C56.3726 530.107 57.4218 530.458 58.1246 531.327C58.7899 532.149 58.9898 533.252 58.9898 534.402V536.85C58.9931 538.001 58.7933 539.104 58.1257 539.925C57.4211 540.792 56.3705 541.14 55.1461 541.14H46.8564C45.6339 541.14 44.5856 540.791 43.8817 539.925C43.2147 539.105 43.0127 538.003 43.0127 536.851V534.457C43.0127 533.291 43.2139 532.177 43.8757 531.347Z" fill="url(#paint45_linear_461_2925)"/>
<path d="M49.5751 245.994C49.4953 239.806 54.7224 235.698 60.7415 236.772C66.5466 237.809 75.5918 244.864 72.4624 251.366C71.2754 253.835 68.6852 255.221 65.9122 255.413C62.4812 255.546 59.1302 255.31 55.8005 254.983" stroke="#7569F4" stroke-width="2" stroke-linecap="round" stroke-linejoin="round"/>
<path d="M67.3122 239.748C68.653 237.917 69.2232 235.527 68.7114 233.301C68.215 231.135 66.3118 229.884 65.6736 227.833C64.9768 225.598 66.561 223.228 68.8418 222.892C71.3248 222.526 73.376 224.808 74.709 226.659C80.592 234.792 79.3776 243.082 79.3444 252.664V255.215" stroke="#7569F4" stroke-width="2" stroke-linecap="round" stroke-linejoin="round"/>
<path d="M52.4372 245.27C55.4419 245.27 57.8764 247.706 57.8764 250.709C57.8764 253.711 55.4419 256.148 52.4372 256.148C49.4345 256.148 47 253.711 47 250.709C47 247.706 49.4345 245.27 52.4372 245.27Z" stroke="url(#paint46_linear_461_2925)" stroke-width="2" stroke-linecap="round" stroke-linejoin="round"/>
<path d="M76.75 255.207H83.0006" stroke="url(#paint47_linear_461_2925)" stroke-width="2" stroke-linecap="round" stroke-linejoin="round"/>
<path d="M63.0898 243.295C63.1288 243.221 65.894 244.103 67.085 246.781" stroke="url(#paint48_linear_461_2925)" stroke-width="2" stroke-linecap="round" stroke-linejoin="round"/>
<path d="M178.154 205.116C177.666 204.628 176.875 204.628 176.387 205.116C175.898 205.604 175.898 206.396 176.387 206.884C176.622 207.119 176.622 207.501 176.387 207.737C175.177 208.949 175.175 210.914 176.387 212.126C176.875 212.615 177.666 212.615 178.154 212.126C178.642 211.638 178.642 210.847 178.154 210.359C177.92 210.124 177.918 209.741 178.155 209.504C179.366 208.292 179.365 206.327 178.154 205.116Z" fill="url(#paint49_linear_461_2925)"/>
<path d="M172.322 209.505C172.809 209.017 172.809 208.225 172.32 207.738C171.831 207.25 171.04 207.251 170.552 207.74C169.342 208.952 169.342 210.915 170.552 212.127C171.04 212.616 171.831 212.617 172.32 212.129C172.809 211.642 172.809 210.85 172.322 210.362C172.085 210.125 172.085 209.742 172.322 209.505Z" fill="url(#paint50_linear_461_2925)"/>
<path d="M183.988 207.738C183.499 207.25 182.708 207.251 182.22 207.74C181.01 208.952 181.01 210.915 182.22 212.127C182.708 212.616 183.499 212.617 183.988 212.129C184.476 211.642 184.477 210.85 183.99 210.362C183.753 210.125 183.753 209.742 183.99 209.505C184.477 209.017 184.476 208.225 183.988 207.738Z" fill="url(#paint51_linear_461_2925)"/>
<path d="M181.996 226.273L181.176 226.645L181.46 227.499L183.24 232.855L183.243 232.866L183.247 232.876C183.249 232.883 183.251 232.886 183.251 232.887L183.254 232.899L183.258 232.91L184.259 235.921L184.259 235.921C184.302 236.052 184.232 236.194 184.1 236.237L184.1 236.237C183.97 236.281 183.828 236.21 183.784 236.079L183.784 236.079L183.059 233.896L182.831 233.211H182.11H171.786H171.064L170.837 233.896L170.111 236.079L170.111 236.079C170.068 236.21 169.926 236.281 169.795 236.237L169.795 236.237C169.664 236.194 169.593 236.052 169.637 235.921L169.637 235.921L172.449 227.458L172.731 226.61L171.921 226.235C167.817 224.335 164.958 220.208 164.894 215.408H189.107C189.042 220.24 186.145 224.391 181.996 226.273ZM180.992 227.678L180.703 226.808L179.812 227.02C178.911 227.235 177.969 227.348 176.999 227.348C175.998 227.348 175.027 227.227 174.099 226.999L173.202 226.779L172.911 227.655L171.667 231.396L171.23 232.711H172.616H181.279H182.665L182.228 231.396L180.992 227.678Z" stroke="#7569F4" stroke-width="2"/>
<g clip-path="url(#clip1_461_2925)">
<path fill-rule="evenodd" clip-rule="evenodd" d="M334.689 285.449H317.304C314.245 285.449 311.768 282.97 311.768 279.913V267.957C311.768 266.471 312.436 265.065 313.587 264.127L322.877 256.558C324.693 255.079 327.299 255.079 329.116 256.558L338.406 264.127C339.557 265.065 340.225 266.471 340.225 267.957V279.913C340.225 282.97 337.747 285.449 334.689 285.449Z" stroke="#7569F4" stroke-width="2" stroke-linecap="round" stroke-linejoin="round"/>
<path fill-rule="evenodd" clip-rule="evenodd" d="M325.482 265.514L320.523 272.345C320.169 272.832 320.517 273.515 321.119 273.515H325.176V277.803C325.176 278.517 326.09 278.815 326.51 278.236L331.469 271.406C331.823 270.919 331.475 270.235 330.873 270.235H326.815V265.947C326.815 265.233 325.902 264.936 325.482 265.514Z" stroke="url(#paint52_linear_461_2925)" stroke-width="2" stroke-linecap="round" stroke-linejoin="round"/>
</g>
<defs>
<linearGradient id="paint0_linear_461_2925" x1="188.871" y1="695.443" x2="188.871" y2="699.788" gradientUnits="userSpaceOnUse">
<stop stop-color="#ECA323"/>
<stop offset="1" stop-color="#EC8536"/>
</linearGradient>
<linearGradient id="paint1_linear_461_2925" x1="195.129" y1="695.443" x2="195.129" y2="699.788" gradientUnits="userSpaceOnUse">
<stop stop-color="#ECA323"/>
<stop offset="1" stop-color="#EC8536"/>
</linearGradient>
<linearGradient id="paint2_linear_461_2925" x1="192" y1="703.677" x2="192" y2="712.109" gradientUnits="userSpaceOnUse">
<stop stop-color="#ECA323"/>
<stop offset="1" stop-color="#EC8536"/>
</linearGradient>
<linearGradient id="paint3_linear_461_2925" x1="192.5" y1="703.678" x2="192.5" y2="707.01" gradientUnits="userSpaceOnUse">
<stop stop-color="#ECA323"/>
<stop offset="1" stop-color="#EC8536"/>
</linearGradient>
<linearGradient id="paint4_linear_461_2925" x1="93.8321" y1="726.521" x2="93.8321" y2="727.521" gradientUnits="userSpaceOnUse">
<stop stop-color="#ECA323"/>
<stop offset="1" stop-color="#EC8536"/>
</linearGradient>
<linearGradient id="paint5_linear_461_2925" x1="88.5332" y1="740.896" x2="88.5332" y2="743.907" gradientUnits="userSpaceOnUse">
<stop stop-color="#ECA323"/>
<stop offset="1" stop-color="#EC8536"/>
</linearGradient>
<linearGradient id="paint6_linear_461_2925" x1="93.0602" y1="740.897" x2="93.0602" y2="743.907" gradientUnits="userSpaceOnUse">
<stop stop-color="#ECA323"/>
<stop offset="1" stop-color="#EC8536"/>
</linearGradient>
<linearGradient id="paint7_linear_461_2925" x1="82.8242" y1="740.897" x2="82.8242" y2="743.907" gradientUnits="userSpaceOnUse">
<stop stop-color="#ECA323"/>
<stop offset="1" stop-color="#EC8536"/>
</linearGradient>
<linearGradient id="paint8_linear_461_2925" x1="331.291" y1="65.9009" x2="331.291" y2="66.9009" gradientUnits="userSpaceOnUse">
<stop stop-color="#ECA323"/>
<stop offset="1" stop-color="#EC8536"/>
</linearGradient>
<linearGradient id="paint9_linear_461_2925" x1="324.541" y1="83.8701" x2="324.541" y2="87.634" gradientUnits="userSpaceOnUse">
<stop stop-color="#ECA323"/>
<stop offset="1" stop-color="#EC8536"/>
</linearGradient>
<linearGradient id="paint10_linear_461_2925" x1="330.325" y1="83.8721" x2="330.325" y2="87.6342" gradientUnits="userSpaceOnUse">
<stop stop-color="#ECA323"/>
<stop offset="1" stop-color="#EC8536"/>
</linearGradient>
<linearGradient id="paint11_linear_461_2925" x1="317.531" y1="83.8721" x2="317.531" y2="87.6342" gradientUnits="userSpaceOnUse">
<stop stop-color="#ECA323"/>
<stop offset="1" stop-color="#EC8536"/>
</linearGradient>
<linearGradient id="paint12_linear_461_2925" x1="328.881" y1="736.965" x2="328.881" y2="738.965" gradientUnits="userSpaceOnUse">
<stop stop-color="#ECA323"/>
<stop offset="1" stop-color="#EC8536"/>
</linearGradient>
<linearGradient id="paint13_linear_461_2925" x1="328.881" y1="743.664" x2="328.881" y2="745.664" gradientUnits="userSpaceOnUse">
<stop stop-color="#ECA323"/>
<stop offset="1" stop-color="#EC8536"/>
</linearGradient>
<linearGradient id="paint14_linear_461_2925" x1="117.881" y1="49.9653" x2="117.881" y2="51.9653" gradientUnits="userSpaceOnUse">
<stop stop-color="#ECA323"/>
<stop offset="1" stop-color="#EC8536"/>
</linearGradient>
<linearGradient id="paint15_linear_461_2925" x1="117.881" y1="56.6636" x2="117.881" y2="58.6636" gradientUnits="userSpaceOnUse">
<stop stop-color="#ECA323"/>
<stop offset="1" stop-color="#EC8536"/>
</linearGradient>
<linearGradient id="paint16_linear_461_2925" x1="208.999" y1="128.922" x2="208.999" y2="134.25" gradientUnits="userSpaceOnUse">
<stop stop-color="#ECA323"/>
<stop offset="1" stop-color="#EC8536"/>
</linearGradient>
<linearGradient id="paint17_linear_461_2925" x1="208.999" y1="113.547" x2="208.999" y2="119.827" gradientUnits="userSpaceOnUse">
<stop stop-color="#ECA323"/>
<stop offset="1" stop-color="#EC8536"/>
</linearGradient>
<linearGradient id="paint18_linear_461_2925" x1="84.5" y1="140" x2="84.5" y2="146" gradientUnits="userSpaceOnUse">
<stop stop-color="#ECA323"/>
<stop offset="1" stop-color="#EC8536"/>
</linearGradient>
<linearGradient id="paint19_linear_461_2925" x1="96.8749" y1="125.656" x2="96.8749" y2="126.656" gradientUnits="userSpaceOnUse">
<stop stop-color="#ECA323"/>
<stop offset="1" stop-color="#EC8536"/>
</linearGradient>
<linearGradient id="paint20_linear_461_2925" x1="84.9983" y1="126.432" x2="84.9983" y2="132.737" gradientUnits="userSpaceOnUse">
<stop stop-color="#ECA323"/>
<stop offset="1" stop-color="#EC8536"/>
</linearGradient>
<linearGradient id="paint21_linear_461_2925" x1="270.972" y1="181.667" x2="270.972" y2="184.167" gradientUnits="userSpaceOnUse">
<stop stop-color="#ECA323"/>
<stop offset="1" stop-color="#EC8536"/>
</linearGradient>
<linearGradient id="paint22_linear_461_2925" x1="299.011" y1="181.667" x2="299.011" y2="184.167" gradientUnits="userSpaceOnUse">
<stop stop-color="#ECA323"/>
<stop offset="1" stop-color="#EC8536"/>
</linearGradient>
<linearGradient id="paint23_linear_461_2925" x1="275.076" y1="171.693" x2="275.076" y2="174.309" gradientUnits="userSpaceOnUse">
<stop stop-color="#ECA323"/>
<stop offset="1" stop-color="#EC8536"/>
</linearGradient>
<linearGradient id="paint24_linear_461_2925" x1="294.902" y1="191.539" x2="294.902" y2="194.126" gradientUnits="userSpaceOnUse">
<stop stop-color="#ECA323"/>
<stop offset="1" stop-color="#EC8536"/>
</linearGradient>
<linearGradient id="paint25_linear_461_2925" x1="294.889" y1="171.693" x2="294.889" y2="174.309" gradientUnits="userSpaceOnUse">
<stop stop-color="#ECA323"/>
<stop offset="1" stop-color="#EC8536"/>
</linearGradient>
<linearGradient id="paint26_linear_461_2925" x1="275.063" y1="191.539" x2="275.063" y2="194.126" gradientUnits="userSpaceOnUse">
<stop stop-color="#ECA323"/>
<stop offset="1" stop-color="#EC8536"/>
</linearGradient>
<linearGradient id="paint27_linear_461_2925" x1="284.983" y1="167.568" x2="284.983" y2="170.235" gradientUnits="userSpaceOnUse">
<stop stop-color="#ECA323"/>
<stop offset="1" stop-color="#EC8536"/>
</linearGradient>
<linearGradient id="paint28_linear_461_2925" x1="285.444" y1="632.222" x2="285.444" y2="637.064" gradientUnits="userSpaceOnUse">
<stop stop-color="#ECA323"/>
<stop offset="1" stop-color="#EC8536"/>
</linearGradient>
<linearGradient id="paint29_linear_461_2925" x1="88.999" y1="619.961" x2="88.999" y2="635.748" gradientUnits="userSpaceOnUse">
<stop stop-color="#ECA323"/>
<stop offset="1" stop-color="#EC8536"/>
</linearGradient>
<linearGradient id="paint30_linear_461_2925" x1="47" y1="335.867" x2="47" y2="339.693" gradientUnits="userSpaceOnUse">
<stop stop-color="#ECA323"/>
<stop offset="1" stop-color="#EC8536"/>
</linearGradient>
<linearGradient id="paint31_linear_461_2925" x1="41" y1="335.867" x2="41" y2="339.681" gradientUnits="userSpaceOnUse">
<stop stop-color="#ECA323"/>
<stop offset="1" stop-color="#EC8536"/>
</linearGradient>
<linearGradient id="paint32_linear_461_2925" x1="44.0008" y1="347.784" x2="44.0008" y2="349.866" gradientUnits="userSpaceOnUse">
<stop stop-color="#ECA323"/>
<stop offset="1" stop-color="#EC8536"/>
</linearGradient>
<linearGradient id="paint33_linear_461_2925" x1="344.94" y1="414.934" x2="344.94" y2="417.302" gradientUnits="userSpaceOnUse">
<stop stop-color="#ECA323"/>
<stop offset="1" stop-color="#EC8536"/>
</linearGradient>
<linearGradient id="paint34_linear_461_2925" x1="355.758" y1="414.934" x2="355.758" y2="417.302" gradientUnits="userSpaceOnUse">
<stop stop-color="#ECA323"/>
<stop offset="1" stop-color="#EC8536"/>
</linearGradient>
<linearGradient id="paint35_linear_461_2925" x1="349.711" y1="394.979" x2="349.711" y2="404.127" gradientUnits="userSpaceOnUse">
<stop stop-color="#ECA323"/>
<stop offset="1" stop-color="#EC8536"/>
</linearGradient>
<linearGradient id="paint36_linear_461_2925" x1="335.02" y1="566.09" x2="335.02" y2="567.256" gradientUnits="userSpaceOnUse">
<stop stop-color="#ECA323"/>
<stop offset="1" stop-color="#EC8536"/>
</linearGradient>
<linearGradient id="paint37_linear_461_2925" x1="340.91" y1="555.041" x2="340.91" y2="556.041" gradientUnits="userSpaceOnUse">
<stop stop-color="#ECA323"/>
<stop offset="1" stop-color="#EC8536"/>
</linearGradient>
<linearGradient id="paint38_linear_461_2925" x1="338.158" y1="555.041" x2="338.158" y2="556.041" gradientUnits="userSpaceOnUse">
<stop stop-color="#ECA323"/>
<stop offset="1" stop-color="#EC8536"/>
</linearGradient>
<linearGradient id="paint39_linear_461_2925" x1="330.334" y1="555.041" x2="330.334" y2="556.041" gradientUnits="userSpaceOnUse">
<stop stop-color="#ECA323"/>
<stop offset="1" stop-color="#EC8536"/>
</linearGradient>
<linearGradient id="paint40_linear_461_2925" x1="202.484" y1="573.041" x2="202.484" y2="578.313" gradientUnits="userSpaceOnUse">
<stop stop-color="#ECA323"/>
<stop offset="1" stop-color="#EC8536"/>
</linearGradient>
<linearGradient id="paint41_linear_461_2925" x1="197.278" y1="590.228" x2="197.278" y2="591.228" gradientUnits="userSpaceOnUse">
<stop stop-color="#ECA323"/>
<stop offset="1" stop-color="#EC8536"/>
</linearGradient>
<linearGradient id="paint42_linear_461_2925" x1="45.9725" y1="523.041" x2="45.9725" y2="525.041" gradientUnits="userSpaceOnUse">
<stop stop-color="#ECA323"/>
<stop offset="1" stop-color="#EC8536"/>
</linearGradient>
<linearGradient id="paint43_linear_461_2925" x1="56.0408" y1="523.041" x2="56.0408" y2="525.041" gradientUnits="userSpaceOnUse">
<stop stop-color="#ECA323"/>
<stop offset="1" stop-color="#EC8536"/>
</linearGradient>
<linearGradient id="paint44_linear_461_2925" x1="51.0067" y1="523.041" x2="51.0067" y2="525.041" gradientUnits="userSpaceOnUse">
<stop stop-color="#ECA323"/>
<stop offset="1" stop-color="#EC8536"/>
</linearGradient>
<linearGradient id="paint45_linear_461_2925" x1="51.0013" y1="530.107" x2="51.0013" y2="541.14" gradientUnits="userSpaceOnUse">
<stop stop-color="#ECA323"/>
<stop offset="1" stop-color="#EC8536"/>
</linearGradient>
<linearGradient id="paint46_linear_461_2925" x1="52.4382" y1="245.27" x2="52.4382" y2="256.148" gradientUnits="userSpaceOnUse">
<stop stop-color="#ECA323"/>
<stop offset="1" stop-color="#EC8536"/>
</linearGradient>
<linearGradient id="paint47_linear_461_2925" x1="79.8753" y1="255.207" x2="79.8753" y2="256.207" gradientUnits="userSpaceOnUse">
<stop stop-color="#ECA323"/>
<stop offset="1" stop-color="#EC8536"/>
</linearGradient>
<linearGradient id="paint48_linear_461_2925" x1="65.0874" y1="243.291" x2="65.0874" y2="246.781" gradientUnits="userSpaceOnUse">
<stop stop-color="#ECA323"/>
<stop offset="1" stop-color="#EC8536"/>
</linearGradient>
<linearGradient id="paint49_linear_461_2925" x1="177.271" y1="204.75" x2="177.271" y2="212.492" gradientUnits="userSpaceOnUse">
<stop stop-color="#ECA323"/>
<stop offset="1" stop-color="#EC8536"/>
</linearGradient>
<linearGradient id="paint50_linear_461_2925" x1="171.166" y1="207.373" x2="171.166" y2="212.495" gradientUnits="userSpaceOnUse">
<stop stop-color="#ECA323"/>
<stop offset="1" stop-color="#EC8536"/>
</linearGradient>
<linearGradient id="paint51_linear_461_2925" x1="182.834" y1="207.373" x2="182.834" y2="212.495" gradientUnits="userSpaceOnUse">
<stop stop-color="#ECA323"/>
<stop offset="1" stop-color="#EC8536"/>
</linearGradient>
<linearGradient id="paint52_linear_461_2925" x1="325.996" y1="265.208" x2="325.996" y2="278.542" gradientUnits="userSpaceOnUse">
<stop stop-color="#ECA323"/>
<stop offset="1" stop-color="#EC8536"/>
</linearGradient>
<clipPath id="clip0_461_2925">
<rect x="300" y="58" width="48" height="32" rx="16" fill="white"/>
</clipPath>
<clipPath id="clip1_461_2925">
<rect x="301" y="254" width="48" height="32" rx="16" fill="white"/>
</clipPath>
</defs>
</svg>
