
<svg width="388" height="833" viewBox="0 0 388 833" fill="none" xmlns="http://www.w3.org/2000/svg">
    <path d="M4 155.058C4 133.162 18.7931 114.055 40.1321 109.149C82.4748 99.4136 151.931 85 192 85C232.069 85 301.525 99.4136 343.868 109.149C365.207 114.055 380 133.162 380 155.058V833H4V155.058Z" fill="white"/>
    <path d="M0 110.111C0 88.2158 14.776 69.1141 36.1111 64.194C79.6853 54.1453 152.28 39 194 39C235.72 39 308.315 54.1453 351.889 64.194C373.224 69.1141 388 88.2159 388 110.111V811H0V110.111Z" fill="white" fill-opacity="0.17"/>
    <path d="M0 71.1109C0 49.2158 14.776 30.1141 36.1111 25.194C79.6852 15.1453 152.28 0 194 0C235.72 0 308.315 15.1453 351.889 25.194C373.224 30.1141 388 49.2159 388 71.1109V772H0V71.1109Z" fill="white" fill-opacity="0.17"/>
</svg>
