
<svg width="381" height="212" viewBox="0 0 381 212" fill="none" xmlns="http://www.w3.org/2000/svg">
    <path d="M289.908 118.067C286.778 128.239 282.475 137.433 274.259 143.497C266.043 149.366 257.24 150.344 246.872 147.214L241.981 158.169C252.545 161.886 264.673 160.712 274.454 155.235C284.235 149.757 293.429 133.912 295.581 123.153L289.908 118.067Z" fill="#182230"/>
    <path d="M266.63 10.0839L246.677 24.5597L235.136 45.2954L231.419 69.3565L282.084 64.2704L286.584 65.6398L331.967 33.5582L315.535 15.17L292.452 7.34521L266.63 10.0839Z" fill="#EBA324"/>
    <path d="M289.321 63.684C303.406 54.0987 317.49 44.5133 331.575 34.7323C332.357 34.1455 333.922 33.5586 333.14 32.5805C332.553 31.798 331.966 32.3849 331.184 32.7761C330.792 33.1674 288.539 62.9015 288.147 63.0971C288.734 64.2709 288.539 64.2709 289.321 63.684Z" fill="#182230"/>
    <path d="M231.418 68.5754C230.832 68.5754 229.854 68.771 229.854 69.5535C230.049 70.9228 231.223 70.5316 232.005 70.336C238.656 69.5535 277.389 65.4455 283.649 64.663C283.649 62.7068 289.909 63.4893 231.418 68.5754Z" fill="#182230"/>
    <path d="M293.431 7.34598C293.039 10.2803 287.758 62.5106 287.758 62.5106C286.193 62.315 286.584 64.4668 287.953 46.0786C288.344 41.775 291.279 11.6496 291.474 7.54158C291.67 5.781 293.431 6.36788 293.431 7.34598Z" fill="#182230"/>
    <path d="M282.867 62.9014C283.063 62.3145 284.824 62.5102 282.867 61.7277C279.933 60.3584 265.066 55.2722 235.332 44.5132C234.354 44.1219 233.962 45.1 234.941 45.6869C234.941 45.8825 276.999 60.9452 282.867 62.9014Z" fill="#182230"/>
    <path d="M287.562 63.2929C288.931 64.0753 288.148 64.4666 290.496 60.163C295.386 51.5557 310.84 23.9734 315.731 15.3661C316.122 14.5837 315.144 14.1924 314.753 14.5837C314.361 15.7574 292.843 53.9031 287.562 63.2929Z" fill="#182230"/>
    <path d="M266.434 9.49726C265.26 10.0841 266.63 12.4315 267.021 13.4096C283.844 57.8152 268.586 17.5177 285.214 62.1189L286.192 61.7276C286.192 61.7276 268.782 13.6053 268.586 13.0184C268.195 11.6491 267.803 8.9104 266.434 9.49726Z" fill="#182230"/>
    <path d="M284.823 61.5325C284.823 61.5325 248.437 25.3429 247.068 23.9736C246.481 23.3867 245.307 24.5604 245.894 25.3429C247.851 27.2991 276.607 55.2726 283.845 62.3149L284.823 61.5325Z" fill="#182230"/>
    <path d="M332.944 32.7766C332.748 32.5809 332.748 32.5809 332.748 32.5809C332.748 32.5809 332.553 32.5809 332.357 32.5809C332.161 32.5809 331.77 32.7765 331.575 33.1678C331.379 33.1678 331.379 33.1678 331.183 33.1678L315.729 15.9533C315.534 15.7577 315.534 15.562 315.729 15.562V15.3664C315.729 15.3664 315.729 15.1708 315.534 15.1708H315.338L315.143 15.3664C315.143 15.562 314.947 15.562 314.751 15.562L293.233 8.32414C293.038 8.32414 292.842 8.12851 292.842 7.73727V7.54164V7.34604C292.842 7.34604 292.646 7.15041 292.451 7.15041C292.255 7.15041 292.059 7.34604 291.864 7.73727C291.864 7.93289 291.668 8.12851 291.473 8.12851C283.452 9.1066 275.627 9.88909 267.607 10.6716C267.411 10.6716 267.216 10.6716 267.216 10.4759C267.02 10.0847 266.825 10.0847 266.629 10.0847C266.629 10.0847 266.629 10.0847 266.433 10.0847C266.433 10.0847 266.433 10.0847 266.433 10.2803C266.433 10.476 266.433 10.6716 266.433 10.8672C266.433 11.0628 266.433 11.2584 266.238 11.2584L247.458 24.7561C247.263 24.9518 247.067 24.7561 246.871 24.7561C246.871 24.7561 246.676 24.5605 246.676 24.7561C246.676 24.7561 246.676 24.7561 246.48 24.7561C246.285 24.7561 246.285 24.9518 246.089 24.9518C245.893 25.1474 245.893 25.1474 245.893 25.343C245.893 25.5386 245.893 25.5386 246.089 25.7342C246.285 25.9299 246.285 26.1255 246.089 26.1255L235.33 45.2962C235.33 45.4918 235.134 45.4918 234.939 45.4918H234.743H234.547C234.352 45.4918 234.352 45.4918 234.352 45.6874C234.352 45.883 234.352 46.0787 234.743 46.2743H234.939C235.134 46.2743 235.134 46.4699 235.134 46.6655L231.613 69.3574C231.613 69.553 231.417 69.553 231.417 69.553C230.831 69.553 230.244 69.7486 230.244 69.9442C230.244 69.9442 230.244 70.1398 230.244 70.3355C230.244 70.5311 230.244 70.5311 230.244 70.7267C230.244 70.9223 230.439 70.9223 230.635 71.1179C231.026 71.1179 231.809 70.9223 232.396 70.9223L234.156 70.7267L241.198 69.9442L255.283 68.3793L283.648 65.2493L283.257 65.6406C283.257 65.445 283.452 65.2493 283.648 65.2493L286.582 66.0318H286.191L288.343 64.4669H288.734C288.343 64.4669 288.734 64.4669 288.734 64.2712L289.125 64.0756L289.908 63.6844L291.277 62.7063L294.211 60.7501L299.884 56.8377L311.23 49.013L322.576 41.1882L328.249 37.2758L331.183 35.3196C331.575 34.9284 332.161 34.7328 332.553 34.3415C332.944 33.559 333.139 33.1678 332.944 32.7766ZM333.335 32.3853C333.531 32.5809 333.726 33.1678 333.531 33.3634C333.335 33.7547 333.139 33.9503 332.944 34.1459C332.357 34.5371 331.966 34.7327 331.575 35.124L328.836 37.0802L323.163 40.9926L311.817 48.8173L300.471 56.6421L294.798 60.5545L292.059 62.5107L290.299 63.4888L289.516 63.88L289.125 64.0756L288.93 64.2712C288.93 64.2712 288.734 64.4669 288.343 64.4669H288.734L286.582 66.0318C286.387 66.0318 286.386 66.0318 286.191 66.0318L283.257 65.2493L283.843 64.8581C283.843 65.0537 283.648 65.2493 283.452 65.2493L255.087 68.3793L241.003 69.9442L233.961 70.7267L232.2 70.9223C231.613 70.9223 231.026 71.1179 230.439 71.1179C230.048 71.1179 229.657 70.7267 229.461 70.3355C229.461 70.1398 229.266 69.9442 229.266 69.7486C229.266 69.553 229.266 69.3574 229.266 69.1617C229.461 68.7705 229.853 68.5749 230.048 68.3793C230.439 68.3793 230.635 68.1836 231.026 68.1836L230.831 68.3793L234.352 45.6874L234.547 46.0787H234.352C234.156 45.8831 233.961 45.883 233.765 45.6874C233.569 45.4918 233.569 45.1006 233.569 44.9049C233.765 44.5137 233.96 44.5137 234.156 44.5137C234.352 44.5137 234.352 44.5137 234.547 44.5137C234.743 44.5137 234.743 44.5137 234.939 44.5137L234.547 44.7093L245.111 25.343V25.7342C245.111 25.7342 244.915 25.5386 244.915 25.343C244.72 25.1474 244.72 24.9518 244.72 24.7561C244.72 24.3649 244.915 23.9737 245.111 23.7781C245.306 23.5824 245.502 23.3868 245.893 23.1912C246.089 23.1912 246.285 23.1912 246.48 23.3868C246.676 23.3868 246.676 23.3868 246.676 23.5825C246.871 23.7781 246.871 23.7781 246.871 23.7781H246.285L265.064 10.2803L264.868 10.6716C264.868 10.4759 264.868 10.0847 264.868 9.69347C264.868 9.49785 265.064 9.30222 265.064 9.1066L265.26 8.911C265.26 8.911 265.455 8.91099 265.455 8.71537C265.846 8.51975 266.238 8.51975 266.433 8.71537C266.825 8.91099 267.02 9.10662 267.02 9.30223L266.629 9.1066C274.649 8.12851 282.474 7.34602 290.495 6.56355L290.103 6.95481C290.103 6.56357 290.299 6.17233 290.495 5.97671C290.69 5.58547 291.277 5.58545 291.668 5.58545C292.059 5.58545 292.451 5.78107 292.646 6.17231C292.646 6.36793 292.842 6.36793 292.842 6.56355C292.842 6.75917 292.842 6.75919 292.842 6.95481V7.15041V7.34604V7.54164L292.451 6.95481L313.969 14.3883L313.578 14.584L313.773 14.3883C313.969 14.1927 313.969 14.1927 314.164 13.9971C314.556 13.8015 314.751 13.9971 314.947 13.9971C315.143 14.1927 315.338 14.3883 315.534 14.7796C315.534 14.9752 315.534 15.1708 315.534 15.1708V15.3664V15.562V15.1708L330.988 32.5809H330.596C330.988 32.3853 331.183 32.1897 331.575 31.9941C331.77 31.9941 331.966 31.9941 332.357 31.9941C333.14 32.1897 333.335 32.3853 333.335 32.3853Z" fill="#182230"/>
    <path d="M291.081 112.393C284.625 113.176 285.017 124.913 293.037 127.065C301.449 129.217 299.297 111.415 291.081 112.393Z" fill="white"/>
    <path d="M294.602 127.652C294.406 127.652 294.21 127.456 294.21 127.26C294.21 127.065 294.406 126.869 294.602 126.869C297.145 126.869 298.123 124.13 298.123 121.783C298.123 119.631 297.536 117.479 296.362 115.719C295.58 114.349 294.015 112.784 291.863 112.784C291.667 112.784 291.472 112.589 291.472 112.393C291.472 112.198 291.667 112.002 291.863 112.002C293.819 112.002 295.775 113.176 296.949 115.328C298.123 117.088 298.71 119.631 298.71 121.783C298.905 125.304 297.145 127.652 294.602 127.652Z" fill="#282A29"/>
    <path d="M293.233 123.349C296.95 124.327 300.471 122.37 301.449 121.588C302.427 120.806 303.796 118.458 304.579 116.893C305.948 114.35 307.317 111.611 307.317 108.873C307.513 105.938 306.535 103.004 304.774 100.852C302.818 98.5049 299.688 96.9399 296.363 96.9399C293.037 96.9399 290.103 98.5049 288.147 101.048C285.799 104.178 285.017 109.068 285.799 112.981C286.973 117.48 287.56 120.806 293.233 123.349Z" fill="white"/>
    <path d="M295.581 123.934C294.016 123.934 292.646 123.543 291.277 122.76C288.147 121 286.191 117.479 285.604 112.979C285.213 110.045 285.213 104.568 287.952 100.851C289.908 98.308 293.233 96.5474 296.363 96.5474H296.559C299.884 96.5474 303.014 98.1123 304.97 100.46C306.731 102.612 307.709 105.741 307.709 108.676C307.513 111.61 306.144 114.544 304.97 116.892C304.775 117.479 304.384 118.065 303.992 118.848C302.232 121.978 298.906 123.934 295.581 123.934ZM296.559 97.3299C293.429 97.3299 290.299 98.8948 288.538 101.242C285.8 104.763 285.995 110.045 286.387 112.784C286.973 117.283 288.734 120.413 291.668 121.978C292.842 122.76 294.211 122.956 295.581 122.956C298.711 122.956 301.645 121.195 303.21 118.457C303.601 117.674 303.992 117.087 304.188 116.501C305.362 114.153 306.731 111.414 306.927 108.676C307.122 105.741 306.144 103.003 304.384 100.851C302.623 98.6992 299.689 97.3299 296.559 97.3299Z" fill="#282A29"/>
    <path d="M303.798 108.285C303.015 108.285 302.233 108.285 301.646 108.089H301.059C297.538 107.894 294.604 106.524 293.626 104.959C293.039 104.177 293.039 103.199 293.43 102.221C294.017 100.656 294.995 100.069 296.364 100.46C299.69 101.438 300.277 101.047 300.277 101.047C300.277 100.851 300.277 100.656 300.472 100.46C300.668 100.46 300.863 100.46 300.863 100.656C301.059 101.047 300.863 101.438 300.668 101.438C300.277 101.829 299.494 102.025 295.973 101.047C294.995 100.851 294.408 101.047 294.017 102.221C293.625 103.003 293.821 103.59 294.212 104.177C295.19 105.742 297.734 106.72 301.059 106.916H301.646C303.406 107.111 306.341 107.307 306.536 105.742C306.536 105.546 306.732 105.351 306.928 105.351C307.123 105.351 307.319 105.546 307.319 105.742C307.319 107.894 305.558 108.285 303.798 108.285Z" fill="#282A29"/>
    <path d="M303.405 113.764C301.057 113.764 298.514 113.177 297.732 112.981C296.949 112.785 295.384 112.003 294.993 110.438C294.406 107.504 295.384 106.134 295.384 105.939C295.58 105.743 295.776 105.743 295.971 105.743C296.167 105.939 296.167 106.134 296.167 106.33C296.167 106.33 295.384 107.699 295.971 110.242C296.167 111.025 296.949 111.807 298.123 112.199C299.297 112.59 304.187 113.568 306.339 112.59C306.535 112.59 306.73 112.59 306.926 112.785C306.926 112.981 306.926 113.177 306.73 113.372C305.752 113.568 304.579 113.764 303.405 113.764Z" fill="#282A29"/>
    <path d="M301.645 119.045C300.862 119.045 299.884 118.849 298.906 118.653C297.928 118.262 296.559 117.675 295.972 116.306C295.189 114.741 294.994 112.785 296.167 111.611C296.363 111.415 296.559 111.415 296.754 111.611C296.95 111.807 296.95 112.002 296.754 112.198C295.972 112.98 295.972 114.545 296.754 115.915C297.145 116.697 298.124 117.48 299.297 117.871C300.862 118.458 302.623 118.458 303.405 117.871C303.601 117.871 303.796 117.871 303.992 118.066C303.992 118.262 303.992 118.458 303.796 118.653C303.014 119.045 302.427 119.045 301.645 119.045Z" fill="#282A29"/>
    <path d="M293.038 61.141C291.668 57.6199 279.736 61.9235 280.909 65.0534C290.299 78.7468 292.646 99.2868 292.646 99.2868C293.038 101.047 294.211 101.439 295.776 100.656C296.559 100.265 298.124 101.047 299.493 101.047C300.471 85.9847 294.016 64.0753 293.038 61.141Z" fill="#182230"/>
    <path d="M106.026 157.777C116.198 128.239 141.824 106.525 172.536 100.461L254.305 84.2242C257.826 84.0286 260.956 86.7673 261.152 90.484L263.695 140.954C263.891 143.301 263.304 145.649 262.13 147.605C258.022 154.843 252.153 161.103 244.524 166.384C241.59 168.536 238.069 169.71 234.548 169.905C209.9 171.47 110.329 168.927 105.048 166.58C103.678 165.993 104.265 162.668 106.026 157.777Z" fill="url(#paint0_linear_461_3436)"/>
    <path d="M105.633 157.581L107.59 152.495C108.372 150.734 109.154 149.169 109.937 147.409C110.719 145.844 111.698 144.083 112.48 142.518C113.263 140.953 114.436 139.388 115.414 137.823C117.371 134.694 119.718 131.759 122.065 129.021C124.413 126.282 126.956 123.543 129.695 121.196C131.064 119.826 132.433 118.848 133.803 117.675C135.172 116.501 136.737 115.523 138.302 114.349C139.084 113.762 139.867 113.371 140.649 112.784L142.997 111.415L145.344 110.045L147.692 108.676L150.039 107.307C150.821 106.916 151.8 106.524 152.582 106.133C154.343 105.351 155.908 104.568 157.668 103.981C160.994 102.612 164.515 101.634 168.232 100.656C171.753 99.6777 175.469 99.0908 178.991 98.3083L189.75 96.1565L211.268 91.8529L254.304 83.4412C257.043 83.2456 259.586 84.8106 260.759 87.3536C261.346 88.5273 261.542 89.8967 261.542 91.266L261.738 94.9828L262.52 110.241L264.085 140.562C264.281 143.105 263.498 145.844 262.129 147.996C260.955 150.147 259.39 152.299 257.825 154.255C254.695 158.168 250.783 161.689 246.87 164.819C244.914 166.384 242.762 167.753 240.219 168.731C237.872 169.709 235.133 169.905 232.59 170.101C227.504 170.296 222.418 170.492 217.332 170.492C207.16 170.688 196.988 170.492 186.815 170.296C176.643 170.101 166.471 169.905 156.299 169.514C146.127 169.123 135.954 168.927 125.978 168.34C120.892 168.144 115.806 167.753 110.719 167.362C109.546 167.166 108.176 167.166 107.003 166.971C106.416 166.775 105.829 166.775 105.046 166.58H104.851C104.655 166.58 104.655 166.579 104.655 166.384C104.46 166.188 104.264 165.993 104.264 165.797C104.068 165.406 104.068 165.014 104.068 164.819C104.068 162.471 104.851 160.124 105.633 157.581ZM106.22 157.777C105.438 160.124 104.655 162.667 104.46 165.015C104.46 165.406 104.46 165.601 104.655 165.797C104.655 165.993 104.655 165.993 104.851 165.993L105.046 166.188H105.242C105.829 166.384 106.416 166.384 107.003 166.58C108.176 166.775 109.546 166.775 110.719 166.971C115.806 167.362 120.892 167.558 125.978 167.949C136.15 168.34 146.322 168.731 156.299 168.927C176.643 169.514 196.792 169.709 217.136 169.709C222.222 169.709 227.309 169.709 232.395 169.318C234.938 169.318 237.481 168.927 239.828 168.144C242.176 167.362 244.327 165.993 246.284 164.428C250.392 161.493 254.108 157.972 257.238 154.06C258.803 152.104 260.173 149.952 261.542 147.8C262.911 145.648 263.498 143.301 263.498 140.758L262.129 110.437L261.346 95.1784L261.151 91.4616C261.151 90.0923 260.955 88.9186 260.368 87.9405C259.39 85.7887 256.847 84.4194 254.5 84.615L211.463 93.2222L189.945 97.5258L179.186 99.6777C175.665 100.46 171.948 101.047 168.427 101.829C164.906 102.612 161.385 103.786 158.059 105.155C156.299 105.742 154.734 106.524 152.973 107.307C152.191 107.698 151.213 108.089 150.43 108.481L148.083 109.654L145.735 110.828L143.388 112.197L141.04 113.567C140.258 114.153 139.475 114.545 138.889 115.132C137.324 116.11 135.954 117.283 134.585 118.457C133.216 119.631 131.651 120.609 130.477 121.978C127.738 124.326 125.195 127.064 122.848 129.803C120.5 132.542 118.153 135.476 116.197 138.41C115.219 139.975 114.241 141.345 113.262 143.105C112.48 144.67 111.502 146.235 110.719 147.996C109.937 149.561 109.154 151.321 108.372 152.886L106.22 157.777Z" fill="#182230"/>
    <path d="M140.455 140.954C139.477 129.412 125.001 82.4634 125.001 82.4634C123.436 82.4634 121.871 82.659 120.306 83.0502C115.611 84.4196 94.2889 94.5918 95.267 104.177C96.8319 121 100.158 164.428 104.852 166.384C105.439 166.775 140.455 141.345 140.455 140.954Z" fill="url(#paint1_linear_461_3436)"/>
    <path d="M140.258 140.953C140.062 139.78 139.867 138.41 139.671 137.237C139.476 136.063 139.28 134.693 138.889 133.52C138.302 130.977 137.715 128.629 137.128 126.086C135.954 121.196 134.585 116.305 133.216 111.415C130.477 101.634 127.543 92.0484 124.609 82.2675L125 82.4631C123.63 82.2675 122.065 82.6587 120.696 83.0499C119.327 83.4412 117.957 84.028 116.393 84.6149C113.654 85.7886 110.915 87.3536 108.372 88.9185C105.829 90.4835 103.286 92.244 100.939 94.2002C98.7868 96.1564 96.635 98.5039 95.6569 101.438C95.2656 102.807 95.4612 104.372 95.4612 105.937L95.8525 110.437L96.635 119.631C97.2218 125.695 97.8087 131.759 98.5912 137.823C99.3736 143.888 100.156 149.952 101.33 155.82C101.917 158.755 102.504 161.885 103.873 164.428C104.069 164.819 104.264 165.014 104.46 165.21C104.655 165.406 104.655 165.406 104.851 165.601C105.047 165.601 104.655 165.601 104.655 165.601C105.242 165.21 106.025 164.819 106.612 164.428L110.328 161.885C115.414 158.363 120.305 154.842 125.195 151.321L132.629 146.039L136.346 143.301L138.106 141.931L139.084 141.149L139.476 140.758L140.258 140.953C140.258 140.758 140.258 140.758 140.258 140.953ZM140.845 140.953V141.149H140.649L140.454 141.344L140.062 141.736L139.084 142.518L137.324 143.888L133.607 146.626L126.173 152.104C121.283 155.82 116.393 159.341 111.306 162.863L107.59 165.406C107.003 165.797 106.416 166.188 105.633 166.579C105.438 166.579 105.633 166.579 105.242 166.775H105.047C105.047 166.775 104.655 166.775 104.851 166.775L104.655 166.579C104.46 166.384 104.264 166.188 104.068 166.188C103.873 165.797 103.482 165.406 103.482 165.21C102.112 162.276 101.525 159.341 100.939 156.212C99.7649 150.147 98.9824 144.083 98.3955 138.019C97.613 131.955 97.2218 125.891 96.635 119.826L95.8525 110.632L95.4612 106.133C95.2656 104.568 95.07 103.003 95.4612 101.438C96.4393 98.3082 98.5912 95.9608 100.939 94.0046C103.286 91.8528 105.829 90.2879 108.372 88.5273C110.915 86.9623 113.654 85.3974 116.588 84.2237C119.327 83.05 122.261 81.6806 125.587 81.8762C125.782 81.8762 125.782 82.0718 125.978 82.0718C128.912 91.6572 131.651 101.438 134.389 111.219C135.759 116.11 137.128 121 138.302 125.891C138.889 128.434 139.476 130.781 140.062 133.324C140.258 134.498 140.649 135.867 140.845 137.041C140.454 138.41 140.649 139.78 140.845 140.953Z" fill="#182230"/>
    <path d="M263.695 140.759L261.152 90.2888C260.957 86.7676 257.827 83.8333 254.306 84.0289L125.001 82.0728C124.61 82.0728 124.023 82.2684 123.632 82.2684C125.588 99.0917 131.261 144.475 133.413 146.236C135.369 147.801 228.875 150.148 262.326 147.018C263.304 145.062 263.695 142.91 263.695 140.759Z" fill="url(#paint2_linear_461_3436)"/>
    <path d="M263.305 140.758L261.74 110.437L260.958 95.1788L260.762 91.462C260.762 90.0927 260.566 88.9189 259.979 87.9408C259.393 86.9627 258.61 85.9846 257.632 85.3978C256.654 84.8109 255.48 84.6153 254.306 84.6153L221.638 84.2241L188.97 83.6372L156.301 83.0504L139.869 82.8547L131.653 82.6591H127.545H125.589H124.611C124.22 82.6591 124.024 82.8547 123.633 82.8547L123.828 82.4635C124.611 90.4839 125.785 98.5043 126.763 106.525C127.741 114.545 128.915 122.565 130.284 130.39C130.871 134.303 131.653 138.411 132.436 142.323C132.631 143.301 132.827 144.279 133.218 145.257C133.218 145.453 133.414 145.649 133.414 145.844C133.414 146.04 133.414 146.04 133.609 146.04H133.805C134.196 146.04 134.587 146.235 135.174 146.235C137.131 146.431 139.087 146.627 141.238 146.627C149.259 147.018 157.279 147.213 165.495 147.409C181.536 147.8 197.772 147.996 213.813 147.996C221.834 147.996 230.05 147.996 238.07 147.8C246.09 147.605 254.111 147.214 262.327 146.627L262.131 146.822C262.914 145.062 263.501 142.91 263.305 140.758ZM263.892 140.758C264.087 142.91 263.501 145.257 262.522 147.213L262.327 147.409C254.307 148.192 246.286 148.387 238.07 148.583C230.05 148.778 221.834 148.974 213.813 148.974C197.577 148.974 181.536 148.778 165.3 148.583C157.279 148.387 149.063 148.192 141.043 147.605C139.087 147.409 136.935 147.409 134.979 147.213C134.587 147.213 133.805 147.018 133.414 147.018C133.218 147.018 133.218 147.018 133.022 146.822C132.827 146.627 132.827 146.431 132.631 146.431C132.436 146.235 132.436 145.844 132.24 145.649C131.849 144.67 131.653 143.692 131.458 142.714C130.675 138.802 129.893 134.694 129.306 130.781C126.763 114.741 124.806 98.6999 123.046 82.6591C123.046 82.4635 123.046 82.2679 123.242 82.2679C123.437 82.2679 123.828 82.0723 124.22 82.0723H125.198H127.154H131.262L139.478 82.2679L155.91 82.4635L188.578 82.8547L221.247 83.246L253.915 83.8328C255.285 83.8328 256.654 84.0284 257.828 84.8109C259.001 85.3978 259.979 86.5715 260.566 87.7452C260.762 88.3321 261.153 88.9189 261.153 89.7014C261.153 90.2883 261.349 91.0707 261.349 91.6576L261.544 95.3744L262.327 110.633L263.892 140.758Z" fill="#182230"/>
    <path d="M137.324 154.843L126.761 163.059C126.761 163.059 222.223 166.384 232.786 164.819C232.786 164.819 240.807 160.711 244.524 155.821L137.324 154.843Z" fill="#303031"/>
    <path d="M239.635 162.472L240.026 163.45C238.461 164.037 226.528 164.037 210.879 163.841C178.21 163.45 129.501 161.885 126.371 161.689V160.711C163.93 161.885 235.918 163.841 239.635 162.472ZM127.74 157.777V158.755C130.675 158.755 179.58 160.32 212.248 160.907C227.898 161.103 239.83 161.103 241.395 160.516L241.004 159.538C237.287 160.907 165.299 158.951 127.74 157.777ZM242.765 157.581L242.373 156.603C238.657 157.973 166.669 156.016 129.11 154.843V155.821C132.044 155.821 180.949 157.386 213.617 157.973C229.267 158.168 241.2 158.168 242.765 157.581Z" fill="url(#paint3_linear_461_3436)"/>
    <path opacity="0.5" d="M136.347 152.886L128.131 156.994L119.72 165.015C119.72 165.015 227.115 169.905 237.287 166.188L246.872 157.385L136.347 152.886Z" fill="url(#paint4_linear_461_3436)"/>
    <path d="M136.348 152.886L135.761 154.451L141.042 159.342L259.588 162.08L260.957 159.928L136.348 152.886Z" fill="url(#paint5_linear_461_3436)"/>
    <path d="M136.347 152.886L255.088 154.256L260.956 159.928L141.824 157.777L136.347 152.886Z" fill="url(#paint6_linear_461_3436)"/>
    <path d="M179.971 118.849C179.188 122.37 177.036 123.74 175.471 122.175C173.711 120.61 173.124 116.502 173.906 113.176C174.689 109.655 176.841 108.286 178.406 109.851C180.166 111.22 180.949 115.328 179.971 118.849Z" fill="#101828"/>
    <path d="M177.622 114.546C177.427 115.72 176.644 116.307 176.253 115.916C175.862 115.524 175.666 114.155 175.862 112.981C176.058 111.808 176.84 111.221 177.231 111.612C177.622 112.003 177.818 113.372 177.622 114.546Z" fill="white"/>
    <path d="M212.248 119.045C211.466 122.567 209.314 123.936 207.749 122.371C205.988 120.806 205.401 116.698 206.184 113.372C206.966 109.851 209.118 108.482 210.683 110.047C212.444 111.612 213.226 115.524 212.248 119.045Z" fill="#101828"/>
    <path d="M209.9 114.742C209.704 115.916 208.922 116.503 208.531 116.111C208.139 115.72 207.944 114.351 208.139 113.177C208.335 112.003 209.117 111.416 209.509 111.808C209.9 112.395 210.095 113.568 209.9 114.742Z" fill="white"/>
    <path d="M194.057 126.87C193.079 126.87 192.297 126.674 191.318 126.283C189.949 125.696 189.362 125.109 189.362 124.327C189.362 123.74 189.949 123.349 190.34 123.349C190.732 123.349 190.927 123.544 191.123 123.74C191.514 123.935 192.688 124.718 194.057 124.718C195.231 124.718 196.209 124.327 196.991 123.349C197.383 122.957 197.97 122.957 198.361 123.349C198.752 123.74 198.752 124.327 198.361 124.718C197.187 126.283 195.622 126.87 194.057 126.87Z" fill="#282A29"/>
    <path d="M287.168 101.635C286.582 103.787 287.56 106.134 288.538 108.09C289.32 109.655 290.103 111.416 291.472 112.59C292.45 113.568 294.015 114.154 295.189 113.568C295.971 113.176 296.558 112.394 296.754 111.416C296.949 110.438 296.949 109.655 296.754 108.677C296.362 106.134 295.384 103.591 294.015 101.439C293.233 100.07 292.255 98.8961 290.69 98.7005C288.929 98.5049 287.56 100.265 287.168 101.635Z" fill="white"/>
    <path d="M294.21 114.35C293.232 114.35 292.058 113.958 291.276 112.98C289.906 111.611 288.928 109.85 288.342 108.285C287.168 105.938 286.385 103.786 286.777 101.634C287.168 99.8738 288.928 98.1133 290.885 98.3089C292.254 98.5045 293.428 99.4826 294.406 101.243C295.775 103.591 296.753 106.134 297.144 108.677C297.34 109.459 297.34 110.437 297.144 111.611C296.949 112.785 296.166 113.567 295.384 113.958C295.188 114.154 294.601 114.35 294.21 114.35ZM290.493 99.0913C289.124 99.0913 287.755 100.461 287.559 101.83C287.168 103.786 287.95 105.938 288.928 108.09C289.711 109.655 290.493 111.22 291.863 112.589C292.645 113.176 293.623 113.763 294.406 113.763C294.797 113.763 294.993 113.763 295.384 113.567C295.971 113.176 296.557 112.589 296.753 111.611C296.949 110.829 296.753 109.85 296.753 109.068C296.362 106.525 295.384 104.177 294.21 101.83C293.232 100.265 292.254 99.287 291.08 99.287C290.689 99.0913 290.493 99.0913 290.493 99.0913Z" fill="#282A29"/>
    <path d="M233.843 89.5435C233.857 88.5713 220.469 87.5995 203.941 87.3729C187.413 87.1463 174.003 87.7508 173.99 88.723C173.977 89.6953 187.364 90.6671 203.893 90.8937C220.421 91.1203 233.83 90.5158 233.843 89.5435Z" fill="url(#paint7_linear_461_3436)"/>
    <path d="M170.246 88.5006C170.255 87.8524 164.833 87.2526 158.135 87.1608C151.437 87.069 146.001 87.52 145.992 88.1682C145.983 88.8163 151.405 89.4162 158.103 89.508C164.8 89.5998 170.237 89.1488 170.246 88.5006Z" fill="url(#paint8_linear_461_3436)"/>
    <path d="M259.586 162.668L141.041 159.929C140.846 159.929 140.846 159.929 140.65 159.733L135.564 154.843C135.368 154.647 135.368 154.452 135.368 154.256L135.955 152.691C135.955 152.495 136.151 152.3 136.542 152.3L255.478 153.669C255.674 153.669 255.674 153.669 255.87 153.865L261.738 159.538C261.934 159.733 261.934 159.929 261.738 160.125L260.369 162.276C259.978 162.668 259.782 162.668 259.586 162.668ZM141.237 158.755L259.391 161.494L260.369 159.929L254.892 154.647L136.542 153.278L136.346 154.256L141.237 158.755Z" fill="#282A29"/>
    <path d="M359.792 79.1118L349.954 75.262L358.723 69.0595L359.365 58.1519L367.92 64.5682L378.4 62.0016L374.978 72.2677L380.752 81.2505H370.059L363.001 89.3778L359.792 79.1118Z" fill="#FDA400"/>
    <path d="M157.466 22.8632L147.628 19.0134L156.397 12.811L157.038 2.11719L165.594 8.53348L176.074 5.75308L172.652 16.0192L178.426 25.002H167.732L160.888 33.3431L157.466 22.8632Z" fill="#FDA400"/>
    <path d="M23.4866 200.324L17.9258 193.48L26.6947 192.625L31.4 185.353L34.822 193.266L43.3771 195.619L36.7469 201.394L37.1747 210.163L29.689 205.671L21.5617 208.879L23.4866 200.324Z" fill="#FDA400"/>
    <defs>
        <linearGradient id="paint0_linear_461_3436" x1="184.011" y1="84.2144" x2="184.011" y2="170.388" gradientUnits="userSpaceOnUse">
            <stop stop-color="#ECA323"/>
            <stop offset="1" stop-color="#EC8536"/>
        </linearGradient>
        <linearGradient id="paint1_linear_461_3436" x1="117.845" y1="82.4634" x2="117.845" y2="166.389" gradientUnits="userSpaceOnUse">
            <stop stop-color="#ECA323"/>
            <stop offset="1" stop-color="#EC8536"/>
        </linearGradient>
        <linearGradient id="paint2_linear_461_3436" x1="193.664" y1="82.0728" x2="193.664" y2="148.561" gradientUnits="userSpaceOnUse">
            <stop stop-color="#ECA323"/>
            <stop offset="1" stop-color="#EC8536"/>
        </linearGradient>
        <linearGradient id="paint3_linear_461_3436" x1="184.568" y1="154.843" x2="184.568" y2="163.958" gradientUnits="userSpaceOnUse">
            <stop stop-color="#ECA323"/>
            <stop offset="1" stop-color="#EC8536"/>
        </linearGradient>
        <linearGradient id="paint4_linear_461_3436" x1="183.296" y1="152.886" x2="183.296" y2="167.583" gradientUnits="userSpaceOnUse">
            <stop stop-color="#ECA323"/>
            <stop offset="1" stop-color="#EC8536"/>
        </linearGradient>
        <linearGradient id="paint5_linear_461_3436" x1="198.359" y1="152.886" x2="198.359" y2="162.08" gradientUnits="userSpaceOnUse">
            <stop stop-color="#ECA323"/>
            <stop offset="1" stop-color="#EC8536"/>
        </linearGradient>
        <linearGradient id="paint6_linear_461_3436" x1="198.651" y1="152.886" x2="198.651" y2="159.928" gradientUnits="userSpaceOnUse">
            <stop stop-color="#ECA323"/>
            <stop offset="1" stop-color="#EC8536"/>
        </linearGradient>
        <linearGradient id="paint7_linear_461_3436" x1="173.99" y1="88.723" x2="233.843" y2="89.5435" gradientUnits="userSpaceOnUse">
            <stop stop-color="#ECA323"/>
            <stop offset="1" stop-color="#EC8536"/>
        </linearGradient>
        <linearGradient id="paint8_linear_461_3436" x1="145.992" y1="88.1682" x2="170.246" y2="88.5006" gradientUnits="userSpaceOnUse">
            <stop stop-color="#ECA323"/>
            <stop offset="1" stop-color="#EC8536"/>
        </linearGradient>
    </defs>
</svg>
