
<svg width="194" height="276" viewBox="0 0 194 276" fill="none" xmlns="http://www.w3.org/2000/svg">
    <path d="M23.2429 275.118C23.4314 275.029 23.5124 274.805 23.4239 274.616C23.3354 274.428 23.1109 274.346 22.9224 274.435C22.7339 274.523 22.6528 274.748 22.7413 274.937C22.8298 275.125 23.0544 275.206 23.2429 275.118Z" fill="#6E61F2"/>
    <path d="M11.2996 270.602C11.3938 270.557 11.4344 270.445 11.3902 270.351C11.3459 270.257 11.2336 270.216 11.1394 270.26C11.0451 270.304 11.0046 270.417 11.0488 270.511C11.0931 270.605 11.2053 270.646 11.2996 270.602Z" fill="#6E61F2"/>
    <path d="M7.59224 262.863C7.78075 262.774 7.86192 262.55 7.77348 262.361C7.68504 262.173 7.46049 262.092 7.27198 262.18C7.08346 262.269 7.00237 262.493 7.09081 262.682C7.17925 262.87 7.40372 262.951 7.59224 262.863Z" fill="#6E61F2"/>
    <path d="M3.83157 254.782C4.02009 254.694 4.10121 254.469 4.01275 254.281C3.92429 254.092 3.69975 254.011 3.51123 254.1C3.32271 254.188 3.24162 254.413 3.33008 254.601C3.41854 254.79 3.64305 254.871 3.83157 254.782Z" fill="#6E61F2"/>
    <path d="M23.2429 275.118C23.4314 275.029 23.5124 274.805 23.4239 274.616C23.3354 274.428 23.1109 274.346 22.9224 274.435C22.7339 274.523 22.6528 274.748 22.7413 274.937C22.8298 275.125 23.0544 275.206 23.2429 275.118Z" fill="#6E61F2"/>
    <path d="M11.2996 270.602C11.3938 270.557 11.4344 270.445 11.3902 270.351C11.3459 270.257 11.2336 270.216 11.1394 270.26C11.0451 270.304 11.0046 270.417 11.0488 270.511C11.0931 270.605 11.2053 270.646 11.2996 270.602Z" fill="#6E61F2"/>
    <path d="M7.59224 262.863C7.78075 262.774 7.86192 262.55 7.77348 262.361C7.68504 262.173 7.46049 262.092 7.27198 262.18C7.08346 262.269 7.00237 262.493 7.09081 262.682C7.17925 262.87 7.40372 262.951 7.59224 262.863Z" fill="#6E61F2"/>
    <path d="M3.83157 254.782C4.02009 254.694 4.10121 254.469 4.01275 254.281C3.92429 254.092 3.69975 254.011 3.51123 254.1C3.32271 254.188 3.24162 254.413 3.33008 254.601C3.41854 254.79 3.64305 254.871 3.83157 254.782Z" fill="#6E61F2"/>
    <path d="M72.3954 224.839L89.8646 237.109C90.4885 237.525 91.3204 237.733 92.1522 237.733L148.719 235.029C149.343 235.029 149.759 234.405 149.759 233.781V227.127C149.759 226.711 149.551 226.295 149.135 226.087L129.17 214.233C129.17 214.233 128.962 214.025 128.754 214.025L111.493 209.865L99.0151 210.489L72.8113 215.688C72.1874 215.896 71.9794 216.312 71.7715 216.728L71.5635 223.591C71.7714 224.215 71.9795 224.631 72.3954 224.839Z" fill="url(#paint0_linear_461_3435)"/>
    <path d="M149.136 226.294C145.184 226.71 134.37 227.334 122.932 227.958C110.454 228.79 97.1441 229.413 91.529 229.829C91.529 229.829 90.6971 234.405 90.0732 237.316C90.6971 237.732 91.321 237.94 91.9449 237.732L148.512 235.029C149.136 235.029 149.552 234.405 149.552 233.781V227.126C149.76 226.918 149.552 226.502 149.136 226.294Z" fill="url(#paint1_linear_461_3435)"/>
    <path d="M149.134 226.502C149.134 226.502 145.599 226.918 140.192 227.334C137.488 227.542 134.368 227.75 131.041 227.958C127.714 228.166 123.97 228.374 120.435 228.374C116.899 228.582 113.156 228.79 109.828 229.206C106.501 229.414 103.381 229.622 100.678 229.622C95.2707 229.83 91.7353 230.038 91.7353 230.038C91.5274 230.038 91.5273 229.83 91.5273 229.83C91.5273 229.622 91.7353 229.622 91.7353 229.622C91.7353 229.622 95.2707 229.414 100.678 228.998C103.381 228.79 106.501 228.582 109.828 228.374C113.156 228.166 116.899 227.958 120.435 227.958C123.97 227.75 127.714 227.334 131.041 227.126C134.368 226.918 137.488 226.71 140.192 226.502C145.599 226.086 149.134 226.086 149.134 226.086C149.342 226.086 149.342 226.294 149.55 226.294C149.342 226.502 149.342 226.502 149.134 226.502Z" fill="#182230"/>
    <path d="M73.0193 215.896C72.3954 216.104 72.1874 216.52 71.9795 216.936L71.7715 223.799C71.7715 224.215 71.9795 224.631 72.1874 224.839L89.6566 237.109C90.2805 237.525 90.9044 237.94 91.5283 237.732V229.83L73.0193 215.896Z" fill="url(#paint2_linear_461_3435)"/>
    <path opacity="0.3" d="M111.492 210.073L99.0144 210.697L72.8105 215.896L84.4567 224.631C84.6647 224.423 84.6647 224.423 84.8727 224.423C87.5762 224.215 98.8064 222.967 102.55 222.551C106.917 222.135 111.284 221.095 114.404 218.184C116.276 216.52 117.523 214.025 117.731 211.737L111.492 210.073Z" fill="url(#paint3_linear_461_3435)"/>
    <path d="M73.0202 216.312C72.8123 216.312 72.6043 216.52 72.6043 216.728C72.3963 216.936 72.6043 217.144 72.6043 217.56V219.64V223.799C72.6043 224.423 72.8123 224.423 73.4362 225.047L75.0999 226.295L78.4274 228.582C80.715 230.246 82.7947 231.91 85.0823 233.366L88.4098 235.861L90.0735 237.109C90.4895 237.525 91.1133 237.941 91.7372 237.733L91.5293 237.941L91.3213 230.038L91.5293 230.454C88.4098 228.166 85.2903 225.879 82.1708 223.591C79.0513 220.888 75.9318 218.6 73.0202 216.312ZM73.2282 215.688C76.3477 217.976 79.4672 220.264 82.5867 222.551C85.7062 224.839 88.8257 227.127 91.7372 229.622L91.9452 229.83V237.733C91.9452 237.941 91.7372 237.941 91.7372 237.941C90.9054 237.941 90.2815 237.525 89.6576 237.317L87.9939 236.069L84.6664 233.782C82.3788 232.326 80.0911 230.662 77.8035 229.206L74.476 226.919L72.8123 225.671C72.6043 225.463 72.1884 225.255 71.9804 224.839C71.5645 224.423 71.5645 223.799 71.5645 223.591L71.7724 219.432L71.9804 217.352V216.728C71.9804 216.52 71.9804 216.312 72.1884 216.104C72.3964 215.688 72.8123 215.48 73.2282 215.48C73.0203 215.48 73.2282 215.688 73.2282 215.688Z" fill="#182230"/>
    <path d="M72.6043 224.631L86.1221 233.99L89.4496 236.278C90.4894 237.317 91.5293 237.525 92.9851 237.317L101.096 236.901C112.118 236.277 122.932 235.862 133.954 235.446L142.065 235.03L146.225 234.822H148.304C148.928 234.822 149.344 234.614 149.344 233.99V229.831V227.751C149.344 226.919 149.344 226.711 148.72 226.295L141.649 222.136L134.578 217.976L131.043 215.897L129.171 214.857C128.755 214.441 127.923 214.441 127.3 214.233L111.286 210.49H111.494L99.0161 211.114L81.3389 214.649L76.9716 215.481L74.684 215.897L73.6441 216.105L73.0202 216.313C72.8123 216.313 72.8123 216.313 72.6043 216.521C72.3963 216.729 72.1884 216.937 72.1884 217.353V218.392V220.68V222.968V224.007C72.1884 224.215 72.1884 224.423 72.6043 224.631ZM72.1884 225.047C71.7725 224.839 71.5645 224.215 71.5645 223.8V222.76V220.472V218.184V217.145C71.5645 216.729 71.7725 216.105 72.1884 215.897C72.3964 215.689 72.6043 215.689 72.8123 215.689L73.4362 215.481L74.476 215.273L76.7636 214.857L81.1309 214.025L98.8081 210.49L111.286 209.866C111.286 209.866 111.286 209.866 111.494 209.866L127.508 213.817L128.547 214.025C128.755 214.025 129.379 214.233 129.587 214.441L131.251 215.481L134.786 217.561L141.857 221.72L148.928 225.879C149.136 226.087 149.552 226.295 149.76 226.711C149.76 226.919 149.968 227.127 149.968 227.335V227.751V229.831V233.99C149.968 234.406 149.76 234.822 149.344 235.238C148.928 235.446 148.512 235.654 148.096 235.654L146.017 235.862L141.857 236.07L133.747 236.485C122.724 237.109 111.91 237.733 100.888 238.149L92.7771 238.565C92.1532 238.565 91.3213 238.773 90.6974 238.565C89.8655 238.357 89.2417 237.941 88.8257 237.525L85.4982 235.03L72.1884 225.047Z" fill="#182230"/>
    <path d="M101.926 107.754C98.1831 108.586 94.4397 109.626 90.6963 110.042C94.4397 148.931 98.1831 202.379 98.807 211.529C98.807 212.777 99.6388 213.817 100.887 214.233C101.926 214.649 103.59 214.857 105.878 214.649C112.949 214.233 111.701 210.905 111.701 210.905C108.165 173.887 105.046 137.701 101.926 107.754Z" fill="#A9B8BA"/>
    <path d="M101.718 107.961C98.1829 108.793 94.4396 109.833 90.9041 110.457L91.32 110.041L93.8156 139.572C94.6475 149.346 95.4794 159.329 96.1033 169.103L98.3909 198.635L99.0148 205.913L99.2228 209.657C99.4308 210.905 99.2228 212.152 99.8467 212.984C100.471 213.816 101.718 214.024 102.966 214.232C104.214 214.232 105.462 214.232 106.502 214.232C107.749 214.024 108.997 213.816 110.037 213.4C111.077 212.984 111.909 211.944 111.701 210.905C110.037 193.643 108.165 176.59 106.71 159.329L101.718 107.961ZM102.134 107.753L107.333 159.329C108.997 176.59 110.661 193.643 112.325 210.905C112.533 211.736 112.325 212.36 111.909 212.984C111.493 213.608 110.869 214.024 110.245 214.232C108.997 214.856 107.749 215.064 106.502 215.064C105.254 215.272 104.006 215.272 102.758 215.064C102.134 215.064 101.51 214.856 100.886 214.648C100.263 214.44 99.6387 214.024 99.2228 213.608C98.8069 212.984 98.5988 212.36 98.5988 211.736L98.3909 209.865L97.975 206.121L97.3511 198.842L94.8555 169.311C94.0236 159.537 93.1917 149.554 92.3598 139.78L90.0723 110.249C90.0723 110.041 90.2802 109.833 90.4882 109.833C94.2316 109.417 97.9749 108.377 101.718 107.545C101.926 107.337 102.134 107.545 102.134 107.753C102.134 107.545 102.134 107.545 102.134 107.753Z" fill="#182230"/>
    <path d="M114.197 152.883L115.237 159.538C135.202 155.586 145.184 168.064 154.543 180.126L158.078 175.759C144.144 145.812 115.029 151.011 114.197 152.883Z" fill="#182230"/>
    <path d="M114.613 96.7314L75.9311 104.426C75.9311 104.426 42.8644 191.98 81.7542 201.963C82.794 202.171 83.8339 202.378 84.8737 202.378C89.241 202.586 101.095 202.794 109.414 201.547C115.445 200.507 120.436 199.259 124.179 194.476C128.547 188.029 127.923 183.454 114.613 96.7314Z" fill="url(#paint4_linear_461_3435)"/>
    <path d="M86.1224 102.347L75.7241 104.426C75.7241 104.426 42.6574 191.98 81.5472 201.963C82.587 202.171 83.6269 202.379 84.6667 202.379C86.7464 202.379 90.2817 202.587 94.4411 202.587C86.7463 201.339 83.0029 190.732 81.3392 176.591C78.2197 148.099 84.2507 105.674 86.1224 102.347Z" fill="url(#paint5_linear_461_3435)"/>
    <path d="M94.4395 202.795C94.4395 202.795 94.0236 202.795 93.1918 202.587C92.3599 202.379 91.3201 201.963 90.0723 201.131C87.5767 199.468 85.289 195.724 83.6253 190.941C81.9616 186.158 80.9217 180.335 80.5058 174.304C80.2978 171.184 80.0898 168.065 80.0898 164.737C80.0898 161.41 80.0898 158.082 80.0898 154.963C80.0898 151.635 80.0899 148.308 80.2978 145.188C80.5058 141.861 80.7138 138.741 80.7138 135.622C80.9217 132.502 81.1297 129.591 81.5456 126.679C81.7536 123.768 82.1695 121.272 82.5855 118.776C83.2094 113.785 83.8333 109.834 84.4572 106.922C84.6651 105.467 85.081 104.427 85.289 103.595C85.497 102.763 85.705 102.347 85.705 102.347C85.705 102.139 85.9129 102.139 86.1209 102.139C86.3288 102.139 86.3288 102.347 86.3288 102.555C86.3288 102.555 86.1209 102.971 85.9129 103.595C85.705 104.427 85.497 105.467 85.289 106.922C85.081 108.378 84.6651 110.042 84.4572 112.122C84.2492 114.201 83.8333 116.281 83.6253 118.776C83.0014 123.768 82.5854 129.383 81.9615 135.622C81.7536 138.741 81.5456 141.861 81.3377 145.188C81.1297 148.516 81.1297 151.635 80.9217 154.963C80.9217 158.29 80.9217 161.618 81.1297 164.737C81.3376 168.065 81.5456 171.184 81.7536 174.304C81.9616 177.423 82.3775 180.335 83.0014 183.038C83.4173 185.742 84.0412 188.445 84.8731 190.733C86.3289 195.308 88.6165 198.844 90.6962 200.715C91.736 201.547 92.7758 201.963 93.3997 202.171C94.2316 202.379 94.6475 202.379 94.6475 202.379C94.8555 202.379 94.8555 202.587 94.8555 202.795C94.8555 202.795 94.6475 203.003 94.4395 202.795Z" fill="#182230"/>
    <path d="M114.405 97.1478C101.511 99.8514 88.8251 102.347 75.9311 105.051L76.3471 104.843C72.8116 114.617 69.9001 124.807 67.6125 134.79C65.3248 144.98 63.4531 155.378 63.2451 165.777C63.0372 170.976 63.4531 176.175 64.493 181.374C65.5328 186.365 67.4045 191.357 70.732 195.308C74.0594 199.259 79.0506 201.755 84.0418 202.379C89.241 202.587 94.4401 202.587 99.6393 202.379C104.838 202.171 110.038 201.547 115.029 200.091C117.524 199.259 119.812 198.22 121.684 196.556C123.555 194.892 125.011 192.604 125.635 190.109C126.259 187.613 126.259 184.91 126.051 182.414C126.051 179.919 125.635 177.215 125.427 174.719C125.011 169.52 124.179 164.321 123.555 159.122C120.644 138.117 117.524 117.736 114.405 97.1478ZM114.821 96.7318C117.94 117.321 121.268 138.117 124.179 158.706C124.803 163.905 125.635 169.104 126.259 174.303C126.467 177.007 126.675 179.503 126.883 182.206C127.091 184.91 127.091 187.405 126.467 190.109C125.219 195.516 120.436 199.259 115.237 200.715C110.038 202.171 104.838 202.587 99.6393 203.003C94.4401 203.211 89.241 203.211 83.8339 203.003C78.6347 202.379 73.6435 199.675 70.1081 195.724C66.5726 191.773 64.7009 186.573 63.4531 181.374C62.4133 176.175 61.9973 170.976 62.2053 165.777C62.4133 155.17 64.077 144.772 66.3646 134.582C67.4045 129.383 68.8603 124.391 70.3161 119.4C71.7718 114.409 73.4355 109.418 75.3072 104.427C75.3072 104.219 75.5152 104.219 75.7231 104.219C88.6171 101.723 101.511 99.0195 114.613 96.7318C114.613 96.3159 114.821 96.5239 114.821 96.7318Z" fill="#182230"/>
    <path d="M115.445 101.307C119.188 99.2277 117.732 90.2851 113.989 89.8692C104.422 89.2453 83.4177 91.5329 76.7628 94.2364C74.6831 95.0683 73.4354 97.7719 73.4354 99.8516C73.2274 102.555 73.6433 104.427 76.1389 104.843L85.0814 105.467C96.3116 103.803 115.445 101.307 115.445 101.307Z" fill="#182230"/>
    <path d="M91.1138 143.732C90.4899 146.644 88.8261 147.892 87.3704 146.644C85.9146 145.396 85.4986 142.069 86.1225 139.157C86.7464 136.245 88.4102 134.998 89.866 136.245C91.1138 137.493 91.7377 140.821 91.1138 143.732Z" fill="#101828"/>
    <path d="M89.0338 140.197C88.8259 141.237 88.4099 141.653 87.994 141.237C87.5781 140.821 87.578 139.781 87.786 138.949C87.994 137.909 88.4099 137.493 88.8258 137.909C89.0338 138.117 89.2418 139.157 89.0338 140.197Z" fill="white"/>
    <path d="M116.693 141.444C116.069 144.356 114.405 145.604 112.949 144.356C111.494 143.108 111.078 139.78 111.702 136.869C112.326 133.957 113.989 132.71 115.445 133.957C116.693 135.413 117.317 138.741 116.693 141.444Z" fill="#101828"/>
    <path d="M114.613 137.908C114.405 138.948 113.989 139.364 113.573 138.948C113.157 138.532 113.157 137.493 113.365 136.661C113.573 135.621 113.989 135.205 114.405 135.621C114.613 136.037 114.821 137.077 114.613 137.908Z" fill="white"/>
    <path d="M102.342 151.634C101.302 151.634 100.47 151.426 100.054 151.218C99.0144 150.802 97.5586 150.386 97.5586 149.346C97.5586 148.722 97.9745 148.306 98.5984 148.306C99.0144 148.306 99.2224 148.514 99.4303 148.722C99.8463 148.93 101.302 149.762 102.966 149.554C104.214 149.346 105.461 148.722 106.293 147.474C106.709 147.058 107.333 146.85 107.749 147.266C108.165 147.682 108.373 148.306 107.957 148.722C106.085 151.01 104.006 151.634 102.342 151.634Z" fill="#282A29"/>
    <path d="M162.863 192.605L159.952 202.795C159.952 202.795 154.544 200.508 150.177 203.419C146.85 205.707 139.155 225.048 137.491 239.397C137.491 239.397 156 251.875 174.093 252.083C174.093 252.083 184.908 238.358 182.412 218.601C181.788 214.233 179.916 209.658 175.757 207.578L169.518 205.083L171.39 191.981L162.863 192.605Z" fill="url(#paint6_linear_461_3435)"/>
    <path d="M170.974 215.272C165.983 210.488 156 208.825 151.633 208.409C150.177 208.201 148.721 209.033 147.89 210.28C143.73 217.767 138.947 234.821 137.699 239.396C138.323 239.812 156.624 251.666 174.301 252.082C174.301 252.082 174.301 252.082 174.301 251.874C177.837 229.621 177.629 221.719 170.974 215.272Z" fill="url(#paint7_linear_461_3435)"/>
    <path d="M163.071 192.812L160.367 202.794C160.367 203.002 160.159 203.21 159.952 203.002C158.08 202.378 156 201.962 154.128 202.378C153.089 202.586 152.257 202.794 151.425 203.21C151.217 203.21 151.009 203.418 150.801 203.626L150.593 203.834L150.385 204.042C149.969 204.458 149.761 204.666 149.553 205.082C148.513 206.746 147.474 208.617 146.642 210.281C145.81 212.153 144.978 214.024 144.354 215.896C142.898 219.639 141.65 223.591 140.611 227.542C139.987 229.414 139.571 231.494 139.155 233.365C138.739 235.445 138.531 237.317 138.115 239.396L137.907 238.98C143.314 242.516 149.345 245.427 155.376 247.715C156.832 248.339 158.496 248.755 159.952 249.379C160.783 249.587 161.407 249.795 162.239 250.003C163.071 250.211 163.903 250.419 164.527 250.626L167.022 251.042C167.854 251.25 168.686 251.25 169.518 251.458C171.182 251.666 172.846 251.666 174.301 251.874L174.093 252.082C176.381 248.755 178.253 245.219 179.708 241.476C180.124 240.644 180.332 239.604 180.748 238.564C180.956 237.525 181.164 236.693 181.58 235.653C181.996 233.781 182.412 231.702 182.62 229.622C182.828 228.582 182.828 227.542 182.828 226.71C182.828 225.67 182.828 224.631 182.828 223.799C182.828 222.759 182.828 221.719 182.62 220.887C182.62 219.847 182.412 218.808 182.204 217.976C181.58 214.232 179.5 210.281 176.173 208.409L169.934 205.914C169.726 205.914 169.726 205.706 169.726 205.498L171.598 192.396L172.014 192.812H163.071ZM162.863 192.188L171.598 191.564C171.806 191.564 172.014 191.772 172.014 191.98L170.142 205.082L169.934 204.666L176.173 207.161C178.045 208.201 179.5 209.657 180.748 211.529C181.788 213.4 182.412 215.272 182.828 217.352C183.036 218.392 183.036 219.431 183.244 220.471C183.244 221.511 183.452 222.551 183.452 223.591C183.452 224.631 183.452 225.67 183.452 226.71C183.452 227.75 183.452 228.79 183.244 229.83C183.036 231.909 182.62 233.781 182.204 235.861C181.996 236.901 181.788 237.94 181.372 238.772C180.956 239.812 180.748 240.644 180.332 241.684C178.877 245.427 177.005 249.171 174.717 252.498L174.509 252.706C172.845 252.498 171.182 252.498 169.518 252.29C168.686 252.082 167.854 252.082 167.022 251.874L164.527 251.458C163.695 251.25 162.863 251.042 162.031 250.834C161.199 250.626 160.368 250.418 159.744 250.211C158.08 249.795 156.624 249.171 154.96 248.755C148.721 246.467 142.898 243.556 137.283 240.02C137.075 240.02 137.075 239.812 137.075 239.604C137.283 237.525 137.699 235.445 137.907 233.573C138.323 231.494 138.739 229.622 139.155 227.542C140.195 223.591 141.443 219.639 142.898 215.896C143.522 214.024 144.354 212.153 145.186 210.281C146.018 208.409 147.058 206.538 148.305 204.874C148.721 204.458 148.929 204.042 149.345 203.626L149.553 203.418C149.761 203.21 149.761 203.21 149.969 203.21C150.177 203.002 150.385 203.002 150.593 202.794C151.633 202.378 152.673 201.962 153.713 201.962C155.792 201.754 157.872 201.962 159.952 202.794L159.328 203.002L162.239 193.02C162.655 192.396 162.655 192.188 162.863 192.188Z" fill="#182230"/>
    <path d="M154.958 185.325C155.789 185.533 156.413 184.91 156.829 184.286C166.188 174.303 157.037 167.024 152.67 170.768C148.927 174.095 152.878 184.91 154.958 185.325Z" fill="white"/>
    <path d="M154.958 185.74H154.75C153.502 185.532 152.254 182.829 151.423 180.333C150.383 176.798 150.175 172.431 152.462 170.351C153.294 169.519 154.334 169.103 155.582 169.103C157.662 169.103 159.949 170.559 160.781 172.846C161.405 174.51 162.445 178.67 157.246 184.493C156.622 185.117 155.998 185.74 154.958 185.74ZM155.582 170.143C154.75 170.143 153.71 170.559 153.086 171.183C151.215 172.846 151.423 177.006 152.462 180.125C153.294 183.037 154.542 184.701 155.166 184.909C155.79 184.909 156.206 184.493 156.622 184.077C160.157 180.333 161.405 176.382 160.157 173.47C159.117 171.391 157.246 170.143 155.582 170.143Z" fill="#282A29"/>
    <path d="M159.326 172.224C157.246 173.264 155.999 175.551 155.167 177.631C153.503 182.414 153.295 188.237 156.83 191.981C159.742 195.308 164.733 196.348 169.1 195.932C170.556 195.724 172.012 195.516 173.052 194.684C174.092 193.853 174.923 192.397 174.508 190.941C175.755 190.525 176.795 189.277 177.003 188.029C177.419 186.782 177.003 185.326 175.963 184.286C178.667 182.622 179.291 178.463 177.419 175.967C176.379 174.512 174.508 173.68 172.844 173.056C170.14 172.016 167.437 171.6 164.525 171.392C162.861 171.392 160.99 171.392 159.326 172.224Z" fill="white"/>
    <path d="M167.021 196.556C162.654 196.556 158.91 195.1 156.414 192.396C152.671 188.237 153.087 181.998 154.751 177.631C155.791 174.719 157.246 172.847 159.118 172.016C160.158 171.392 161.614 171.184 163.277 171.184C163.693 171.184 164.109 171.184 164.525 171.184C167.437 171.392 170.348 172.015 173.052 172.847C174.716 173.471 176.587 174.303 177.835 175.967C178.875 177.215 179.291 179.086 178.875 180.75C178.667 182.414 177.835 183.662 176.587 184.701C177.419 185.741 177.627 187.197 177.419 188.445C177.003 189.693 176.171 190.94 174.924 191.564C175.131 192.812 174.508 194.476 173.26 195.308C172.012 196.348 170.348 196.556 169.1 196.764C168.477 196.348 167.853 196.556 167.021 196.556ZM163.277 171.808C161.614 171.808 160.574 172.015 159.534 172.639C157.87 173.471 156.622 175.135 155.583 177.839C154.127 181.998 153.711 187.821 157.038 191.772C159.118 194.268 162.653 195.516 166.813 195.516C167.437 195.516 168.061 195.516 168.892 195.308C170.14 195.1 171.596 194.892 172.636 194.06C173.468 193.436 174.3 191.98 173.884 190.733C173.884 190.525 173.884 190.317 174.092 190.109C175.131 189.693 176.171 188.653 176.379 187.613C176.587 186.365 176.379 185.117 175.547 184.286C175.547 184.286 175.339 184.078 175.339 183.87C175.339 183.662 175.339 183.662 175.547 183.454C176.795 182.622 177.419 181.374 177.835 179.918C178.043 178.462 177.835 177.007 177.003 175.759C175.963 174.303 174.092 173.471 172.636 173.055C169.932 172.223 167.229 171.6 164.525 171.392C164.109 171.808 163.693 171.808 163.277 171.808Z" fill="#282A29"/>
    <path d="M167.019 173.471C167.435 170.559 169.306 165.984 172.426 166.4C177.625 167.232 175.961 173.471 175.337 175.551C174.506 177.214 166.603 175.551 167.019 173.471Z" fill="url(#paint8_linear_461_3435)"/>
    <path d="M173.26 176.799C171.181 176.799 167.853 175.967 166.813 174.719C166.397 174.303 166.397 173.679 166.397 173.471C166.813 170.56 168.685 165.568 172.428 165.984C173.884 166.192 175.132 166.816 175.756 168.064C177.212 170.352 176.38 173.887 175.756 175.759C175.34 176.591 174.716 176.799 173.26 176.799ZM171.805 167.024C169.517 167.024 167.853 170.976 167.437 173.679C167.437 173.887 167.437 173.887 167.645 174.095C168.477 174.927 171.181 175.967 173.26 175.967C174.3 175.967 174.508 175.759 174.508 175.759C174.924 174.303 175.964 170.976 174.716 168.896C174.092 168.064 173.26 167.648 172.221 167.44C172.013 167.024 172.013 167.024 171.805 167.024Z" fill="#282A29"/>
    <path d="M175.963 174.302C175.755 174.302 175.547 174.302 175.339 174.51C175.339 174.51 174.715 176.382 169.308 175.134C168.684 174.926 168.268 174.926 167.644 174.51C167.228 174.302 166.812 173.886 166.812 173.47C166.812 173.054 167.228 171.807 167.228 171.807C166.812 172.015 166.604 172.223 166.188 172.431C165.772 172.638 165.773 173.054 165.565 173.262C165.149 174.926 167.852 175.758 169.1 176.174C170.556 176.59 171.596 176.59 172.427 176.59C175.547 176.59 175.963 174.926 175.963 174.926C176.379 174.718 176.171 174.302 175.963 174.302Z" fill="#182230"/>
    <path d="M56.3823 163.281C58.4619 161.409 71.5638 155.378 73.8515 155.586C77.3869 156.002 77.5948 163.489 74.6833 164.32C72.1877 164.944 61.9973 169.312 60.1256 170.767C58.4619 172.223 52.6389 181.166 48.0636 187.197C46.6078 187.821 43.9043 186.157 43.6963 184.493C43.6963 182.829 50.9751 168.272 56.3823 163.281Z" fill="#182230"/>
    <path d="M77.1797 223.591L88.6179 242.516C88.6179 242.516 69.485 255.41 50.352 263.312L43.905 258.945L42.6572 239.188L77.1797 223.591Z" fill="#EFEFEF"/>
    <path d="M46.6088 260.609L46.4008 260.401L45.9849 239.812C46.6088 246.883 46.8167 253.746 46.6088 260.609ZM46.8167 238.564C46.8167 240.644 46.6088 242.308 47.0247 244.387C47.6486 246.883 48.0646 249.586 48.4805 252.082C49.1044 255.825 49.7283 259.361 50.3522 263.104C50.9761 262.896 51.392 262.688 52.0159 262.48C50.5601 254.578 48.8964 246.467 46.8167 238.564ZM47.8566 237.732L53.4717 262.064H53.6797C52.0159 253.746 50.1442 245.635 47.8566 237.732ZM70.9409 253.33C68.8612 249.378 66.7815 245.635 64.7019 241.892C63.4541 238.356 61.9983 234.613 60.3346 231.285L62.2063 236.9C61.3744 235.445 60.7505 233.989 59.9187 232.533L62.2063 237.108L64.7019 245.219C62.8302 240.644 60.9585 236.277 59.0868 231.909L65.9497 249.17L67.8214 255.201C68.0293 254.994 68.2373 254.994 68.4453 254.786C67.6134 250.626 66.3656 246.467 64.9099 242.516L70.9409 253.33C70.7329 253.538 70.7329 253.33 70.9409 253.33ZM74.4763 251.458C73.4365 250.002 72.6046 248.547 71.7727 247.091C71.3568 246.467 71.1488 245.843 70.7329 245.427L66.9895 238.98C66.1577 237.108 65.3258 235.237 64.4939 233.573L65.5337 236.484L62.2063 230.661H61.9983C62.4143 231.493 62.8302 232.533 63.4541 233.365C63.0381 232.741 62.8302 232.325 62.4142 231.701L63.662 233.781C64.7019 235.861 65.7417 237.732 66.7815 239.812L71.3568 253.538C71.5648 253.33 71.9807 253.33 72.1887 253.122C71.3568 250.21 70.317 247.299 69.2772 244.595C70.7329 247.091 72.3966 249.586 73.8524 252.082C73.8524 251.666 74.0604 251.458 74.4763 251.458ZM79.6755 248.339C79.8835 248.339 79.8834 248.131 80.0914 248.131L79.8834 247.715L76.556 239.604C75.5162 236.277 74.0604 233.157 72.6046 230.038L71.3568 226.918C71.5648 227.542 71.9807 228.374 72.1887 228.998C71.7728 228.374 71.5648 227.75 71.1489 227.126L72.6046 231.701L71.1489 228.374C71.7728 230.245 72.6046 232.117 73.4365 233.781L75.7241 240.852L69.901 229.206C71.9807 233.781 74.0604 238.356 76.348 242.931L78.4277 249.586C78.8436 249.378 79.2596 249.17 79.6755 248.755L79.4675 248.131C79.2596 247.299 79.0516 246.259 78.8436 245.427C78.8436 245.635 79.0516 245.843 79.0516 245.843C78.8436 246.675 79.2596 247.507 79.6755 248.339ZM49.7283 236.484C51.392 244.803 53.2637 252.914 55.3434 261.025C55.3434 261.025 55.5514 261.025 55.5514 260.817L49.7283 236.484ZM59.0868 243.971C58.2549 242.308 57.631 240.644 56.5912 238.98L55.7593 235.445C55.9673 236.484 56.1752 237.524 56.3832 238.564C56.3832 238.356 56.1752 238.356 56.1752 238.148L56.3832 238.98C57.2151 243.555 58.2549 247.923 59.2947 252.29L56.5912 244.179L54.7195 237.94C54.9275 238.772 55.1354 239.604 55.3434 240.436L53.8876 236.069C55.1354 240.852 56.3832 245.635 58.0469 250.418C58.8788 253.122 59.7107 255.825 60.5425 258.529C60.7505 258.529 60.7505 258.321 60.9585 258.321C61.1665 258.321 61.1664 258.113 61.3744 258.113L60.9585 257.073L57.0071 241.06L62.4142 257.489C62.6222 257.281 63.0381 257.281 63.2461 257.073C62.8302 255.201 62.2063 253.33 61.7904 251.458C62.4143 253.33 63.2461 254.994 63.87 256.865C64.078 256.657 64.2859 256.657 64.4939 256.449C62.2063 248.754 59.2948 241.06 55.5514 233.989C56.7992 237.524 57.839 240.852 59.0868 243.971ZM53.8876 236.484L58.2549 259.777C58.2549 259.777 58.4629 259.777 58.4629 259.569C58.0469 257.905 57.839 256.033 57.423 254.37C56.3832 248.547 55.1354 242.516 53.8876 236.484ZM84.0428 245.635L73.8524 225.254C76.7639 232.325 80.0914 239.188 83.8348 245.843C83.8348 245.843 83.8348 245.635 84.0428 245.635ZM86.5384 243.763C86.7463 243.763 86.9543 243.555 87.1623 243.555C83.8348 236.9 80.0914 230.661 75.7241 224.63L84.2507 239.812C81.1312 234.613 77.8038 229.83 73.8524 225.254L85.4985 244.595C86.1224 244.387 86.3304 244.179 86.5384 243.763C86.7463 243.971 86.7463 243.763 86.5384 243.763ZM43.9052 256.449C44.1132 250.418 44.1132 244.387 44.1132 238.564L43.4893 251.666L43.9052 256.449ZM82.795 246.467C79.8835 241.06 76.9719 235.653 73.8524 230.245C73.2285 228.998 72.6046 227.75 71.9807 226.502L80.2994 247.923C80.5073 247.923 80.5074 247.715 80.7153 247.715C79.0516 242.1 76.764 236.692 74.2684 231.285L82.379 246.467C82.587 246.467 82.795 246.467 82.795 246.467ZM55.7593 261.025C56.3832 260.817 57.0071 260.609 57.423 260.193C55.3434 252.498 52.8478 245.011 50.5602 237.108C52.0159 245.219 53.6797 253.122 55.7593 261.025ZM66.9895 228.374C70.109 235.653 73.4365 242.931 77.1799 250.002C77.3878 250.002 77.3879 249.794 77.5958 249.794L66.9895 228.374ZM57.423 232.949L66.3656 255.825C66.5736 255.825 66.5736 255.617 66.7815 255.617C64.2859 247.923 61.1664 240.228 57.423 232.949ZM76.348 250.21C73.2285 242.931 69.4851 235.653 65.7417 228.79L76.348 250.21ZM75.9321 250.626C76.14 250.626 76.1401 250.418 76.348 250.418C74.8923 247.715 73.6444 245.011 71.9807 242.516C69.2771 238.148 66.5736 233.989 63.4541 230.038H63.2461L75.9321 250.626Z" fill="white"/>
    <path opacity="0.9" d="M46.1927 238.981C46.1927 238.357 45.9847 237.941 46.1927 237.525L42.6572 238.981L43.905 258.738L50.352 263.105C50.56 263.313 46.1927 239.189 46.1927 238.981Z" fill="#CECECE"/>
    <path d="M77.5966 223.591C79.4683 226.71 81.5479 229.83 83.4196 232.949L89.2427 242.308C89.4507 242.516 89.2427 242.931 89.0348 242.931C85.9153 245.011 83.0037 246.883 79.8842 248.755C76.7647 250.626 73.6452 252.498 70.3178 254.162C63.8708 257.697 57.4238 260.817 50.5609 263.52H50.353L43.906 259.153L43.698 258.945L42.4502 239.188C42.4502 238.98 42.4502 238.772 42.6582 238.772L59.9194 231.077L77.1806 223.591C77.1806 223.383 77.3886 223.383 77.5966 223.591ZM77.1806 224.007L60.1274 231.701L42.8662 239.396L43.0741 238.98L44.114 258.737L43.906 258.529L50.353 262.896H50.145C56.7999 260.193 63.2469 256.865 69.6938 253.33C72.8133 251.458 75.9328 249.794 79.0523 247.923C82.1718 246.051 85.2913 244.179 88.2029 242.1L87.9949 242.724L82.3798 233.365C80.7161 230.246 79.0523 227.126 77.1806 224.007Z" fill="#182230"/>
    <path d="M79.0514 226.711C75.9319 228.167 57.0069 237.525 47.2325 242.724C46.8166 242.932 46.6086 242.932 46.1927 242.724L42.8652 241.477C42.6572 241.477 42.4493 241.269 42.2413 240.853C41.8254 238.981 42.4493 235.861 44.321 234.198C48.4803 230.662 66.5734 222.552 69.9009 221.72C76.3478 219.848 78.6355 224.423 79.2594 225.879C79.4673 226.295 79.2594 226.711 79.0514 226.711Z" fill="#182230"/>
    <path d="M46.6092 186.989C45.3614 187.613 44.1136 188.237 42.8658 188.653C42.2419 189.068 41.41 189.276 40.7861 189.692L56.3836 229.206C56.3836 229.206 57.0075 230.87 60.127 229.83C62.6226 228.79 62.4147 226.918 62.4147 226.918L46.6092 186.989Z" fill="#182230"/>
    <path d="M47.6473 171.391C50.9747 170.975 53.8863 176.174 54.0943 180.542C54.3022 185.117 51.5987 188.86 48.8951 185.741C46.1915 182.621 40.3684 172.015 47.6473 171.391Z" fill="white"/>
    <path d="M50.7681 187.197C49.9362 187.197 49.1044 186.781 48.2725 185.741C46.4008 183.454 42.4495 176.799 43.9052 173.055C44.5291 171.6 45.569 170.976 47.4407 170.768C50.9761 170.352 54.0956 175.759 54.3036 180.334C54.5115 182.83 53.6797 185.117 52.6399 186.365C52.016 186.989 51.392 187.197 50.7681 187.197ZM47.8566 171.808H47.6486C46.1928 172.016 45.153 172.639 44.7371 173.679C43.4893 177.007 47.2327 183.454 48.8964 185.325C49.9362 186.573 50.9761 186.781 52.0159 185.741C53.0557 184.701 53.4717 182.622 53.4717 180.542C53.2637 176.591 50.7681 171.808 47.8566 171.808Z" fill="#282A29"/>
    <path d="M44.3212 200.298C48.6885 199.258 51.6 196.139 52.6398 191.772C53.4717 188.444 53.0557 185.117 52.0159 181.997C51.184 179.293 49.7282 176.798 47.8565 174.718C44.945 171.807 41.2016 169.935 37.2502 170.767C35.3785 171.183 33.5069 172.015 32.2591 173.47C30.5953 175.55 30.1794 178.254 29.9714 180.749C29.7634 181.997 29.7634 183.453 29.9714 184.701C30.1794 185.948 31.0113 187.196 32.2591 187.82C31.6352 189.068 31.8431 190.524 32.467 191.772C33.0909 193.019 34.5467 193.643 35.7945 193.851C34.9626 195.099 35.5865 196.971 36.6264 198.218C38.706 200.09 41.6176 200.922 44.3212 200.298Z" fill="white"/>
    <path d="M42.4488 200.923C40.1612 200.923 38.0815 199.883 36.6258 198.427C35.5859 197.387 34.962 195.723 35.378 194.268C34.1302 194.06 32.8824 193.228 32.2585 192.188C31.6346 190.94 31.4266 189.484 31.8426 188.237C30.8027 187.613 29.9709 186.365 29.7629 185.117C29.347 183.661 29.5549 182.206 29.5549 180.958C29.7629 178.254 30.1788 175.343 31.8426 173.471C33.0904 172.015 34.9621 170.975 37.0417 170.56C40.9931 169.728 44.9444 171.183 48.0639 174.511C49.9356 176.383 51.3914 179.086 52.4312 181.998C53.4711 185.533 53.679 189.069 53.0551 192.188C51.8073 196.763 48.8958 199.883 44.3206 200.923C43.9046 200.923 43.0727 200.923 42.4488 200.923ZM39.3293 170.975C38.7054 170.975 38.0815 170.975 37.2496 171.183C35.17 171.599 33.5063 172.431 32.4664 173.679C31.0107 175.551 30.5947 178.046 30.3868 180.75C30.3868 181.998 30.1788 183.246 30.3868 184.493C30.5947 185.741 31.4266 186.781 32.4664 187.405C32.6744 187.613 32.8824 187.821 32.6744 188.029C32.2585 189.069 32.2585 190.524 32.8824 191.564C33.5063 192.604 34.7541 193.228 35.7939 193.436C36.0019 193.436 36.0018 193.436 36.2098 193.644C36.2098 193.852 36.2098 193.852 36.2098 194.06C35.5859 195.308 36.2099 196.763 37.0417 197.803C38.7055 199.675 41.617 200.507 44.1126 199.883C48.2719 198.843 50.9755 195.931 52.2233 191.772C53.0551 188.861 52.8471 185.533 51.8073 182.206C50.9754 179.502 49.5197 177.007 47.648 175.135C45.1524 172.431 42.2408 170.975 39.3293 170.975Z" fill="#282A29"/>
    <path d="M34.7545 174.095L23.1083 144.355C22.2765 142.276 26.4358 139.572 28.7235 141.236C28.9314 141.444 29.1394 141.86 29.3473 142.068L40.7855 172.015C40.7855 172.015 41.2014 173.887 38.4979 174.927C35.3784 175.966 34.7545 174.095 34.7545 174.095Z" fill="#182230"/>
    <path d="M85.2894 68.8641C86.5372 70.1119 87.5771 80.9261 88.6169 91.7404C89.2408 93.4041 100.263 92.1563 99.8471 90.4926C98.1833 75.7269 97.9754 76.1429 96.3117 65.1206C96.1037 63.6649 95.6878 62.0012 95.0639 60.5454C92.3603 54.7223 86.5372 50.771 79.0504 53.2666C77.5946 53.6825 74.0592 57.2179 74.4752 62.4171C74.6831 65.1206 78.4265 67.8242 79.8823 67.4083C81.754 66.7844 83.4177 66.9924 85.2894 68.8641Z" fill="#BACACC"/>
    <path d="M85.4955 68.864C85.7034 69.28 85.9114 69.9038 86.1194 70.3198C86.3273 70.7357 86.3273 71.3596 86.5353 71.7756C86.7433 72.8154 86.9512 73.6473 87.1592 74.6871C87.5751 76.5588 87.7831 78.4305 87.9911 80.5102C88.407 84.4616 88.8229 88.2049 89.2389 92.1563V91.9484C89.2389 91.9484 89.6548 92.1563 90.0708 92.1563C90.4867 92.1563 90.9026 92.1563 91.3185 92.3643C92.1504 92.3643 92.9823 92.3643 94.0221 92.3643C95.6859 92.1563 97.5576 91.9483 99.2213 91.3244C99.4293 91.3244 99.6372 91.1164 99.6372 91.1164L99.4293 89.8687L99.2213 87.1651L98.5974 81.7579C98.1814 78.2225 97.5576 74.6871 97.1416 71.1517L96.1018 65.7445C95.6859 64.0808 95.2699 62.2091 94.438 60.7534C92.7743 57.6339 90.0707 55.1382 86.5353 54.3064C84.8716 53.8904 82.9999 53.8904 81.3361 54.0984C80.9202 54.0984 80.5043 54.3064 80.0883 54.3064C79.6724 54.5143 79.2565 54.5143 78.8405 54.7223C78.2166 55.1382 77.5927 55.7621 76.9688 56.386C75.929 57.6338 75.0971 59.2976 74.8892 61.1693C74.6812 62.0011 74.6812 62.833 74.8892 63.6649C75.0971 64.4967 75.5131 65.1206 76.137 65.7445C76.7609 66.3684 77.3848 66.9923 78.2166 67.4083C78.6326 67.6162 79.0485 67.8242 79.4645 67.8242C79.6724 67.8242 79.8804 67.8242 79.8804 67.8242L80.5043 67.6162C81.3362 67.4083 82.376 67.4083 83.4158 67.8242C84.0397 67.4083 84.8716 68.0322 85.4955 68.864ZM85.0795 69.072C83.8317 67.8242 82.168 66.9923 80.5043 67.4083L79.8804 67.6162C79.6724 67.6162 79.2565 67.6162 79.0485 67.6162C78.6326 67.6162 78.0087 67.4082 77.5928 67.2003C76.7609 66.7843 75.929 66.1605 75.3051 65.5366C74.6812 64.9127 74.0573 64.0808 73.8493 63.0409C73.6414 62.0011 73.6414 61.1693 73.8493 60.1294C74.0573 58.2577 74.8892 56.386 75.929 54.9303C76.5529 54.0984 77.1768 53.4745 78.0087 53.0586C78.4246 52.8506 78.8406 52.6426 79.4645 52.6426C79.8804 52.4346 80.2963 52.4347 80.9202 52.2267C82.7919 51.8108 84.6636 52.0188 86.5353 52.4347C90.2787 53.4745 93.1902 56.1781 94.854 59.5055C95.6858 61.1693 96.3097 63.041 96.5177 64.7047L97.3496 70.1119C97.9735 73.6473 98.5974 77.1827 99.0133 80.7181L99.6372 86.1253L100.053 88.8289L100.261 90.0766C100.261 90.0766 100.261 90.4926 100.261 90.7005C100.261 90.9085 100.053 91.1164 99.8452 91.1164C99.6372 91.3244 99.4293 91.5324 99.2213 91.5324C97.3496 92.3643 95.6858 92.5722 93.8141 92.7802C92.9823 92.7802 91.9425 92.9882 91.1106 92.7802C90.6947 92.7802 90.0707 92.7802 89.6548 92.5722C89.4468 92.5722 89.2389 92.3643 88.823 92.3643C88.615 92.1563 88.1991 92.1563 87.9911 91.5324C87.5752 87.581 87.3672 83.8376 86.9513 79.8863C86.7433 78.0146 86.5353 76.1429 86.3273 74.0632C86.1194 73.0234 86.1194 72.1915 85.9114 71.1517C85.9114 70.7358 85.7034 70.1118 85.4955 69.6959C85.4955 69.9039 85.2875 69.488 85.0795 69.072Z" fill="#182230"/>
    <path d="M75.5141 60.7534C75.5141 57.6339 76.9698 54.9303 79.0495 53.2666C80.2973 51.3949 74.2663 55.3462 71.7707 57.4259C63.452 64.0808 57.421 61.3773 54.7174 60.5454C49.3103 58.8817 45.7748 74.8951 54.3015 75.7269C56.5891 75.9349 60.5405 76.3508 65.1158 75.103C72.3946 73.4393 76.5539 68.864 80.0893 67.4083C78.0097 67.4083 75.5141 64.0808 75.5141 60.7534Z" fill="#182230"/>
    <path d="M136.242 241.684C136.242 241.684 134.162 242.1 130.835 242.724C129.171 242.932 127.3 243.348 125.22 243.764C123.14 244.18 121.061 244.388 118.773 244.804C116.693 245.012 114.406 245.427 112.326 245.635C110.246 245.843 108.375 246.051 106.711 246.259C103.383 246.675 101.304 246.883 101.304 246.883C101.304 246.883 103.383 246.467 106.711 245.843C108.375 245.635 110.246 245.22 112.326 244.804C114.406 244.388 116.485 244.18 118.773 243.764C120.853 243.556 123.14 243.14 125.22 242.932C127.3 242.724 129.171 242.516 130.835 242.308C133.954 241.892 136.242 241.684 136.242 241.684Z" fill="white"/>
    <path d="M139.778 253.539C139.778 253.539 137.074 254.579 133.123 255.827C131.043 256.451 128.755 257.282 126.26 258.114C123.764 258.946 121.061 259.778 118.357 260.61C115.653 261.442 112.95 262.274 110.454 262.898C107.959 263.729 105.463 264.353 103.591 264.977C99.4321 266.017 96.7285 266.849 96.7285 266.849C96.7285 266.849 99.4321 265.809 103.383 264.561C105.463 263.937 107.751 263.106 110.246 262.274C112.742 261.442 115.446 260.61 118.149 259.778C120.853 258.946 123.556 258.114 126.052 257.49C128.547 256.867 131.043 256.035 132.915 255.411C137.074 254.371 139.778 253.539 139.778 253.539Z" fill="white"/>
    <path d="M171.596 255.202C171.596 255.202 168.892 256.657 164.733 258.529C162.653 259.569 160.158 260.609 157.662 261.857C154.958 263.104 152.255 264.352 149.551 265.6C146.64 266.848 143.936 268.096 141.232 269.135C138.529 270.175 136.033 271.215 133.954 272.047C129.794 273.711 126.883 274.751 126.883 274.751C126.883 274.751 129.586 273.295 133.746 271.423C135.825 270.383 138.321 269.343 140.817 268.096C143.52 266.848 146.224 265.6 148.927 264.352C151.839 263.104 154.542 261.857 157.246 260.817C159.95 259.777 162.445 258.737 164.525 257.905C168.684 256.241 171.596 255.202 171.596 255.202Z" fill="white"/>
    <path d="M125.009 250.21C123.346 252.082 119.394 255.202 120.642 256.657C121.682 257.905 125.633 257.697 127.713 257.281C127.921 262.688 130 263.312 135.2 262.896C138.735 262.688 142.27 262.064 144.974 260.193C145.598 259.777 145.806 258.945 145.806 258.113C144.974 251.874 134.16 240.436 125.009 250.21Z" fill="white"/>
    <path d="M121.265 269.552C121.889 270.591 126.881 270.799 128.128 271.007C128.96 271.007 129.168 270.383 128.96 269.967C128.752 269.344 126.465 267.888 125.841 267.472C125.009 266.848 123.969 266.224 123.137 266.64C122.097 266.848 120.642 268.512 121.265 269.552Z" fill="white"/>
    <path d="M111.908 257.073C111.492 258.737 116.067 258.321 115.859 257.073C115.443 255.202 112.324 255.202 111.908 257.073Z" fill="white"/>
    <path d="M154.541 257.489C158.493 257.697 156.413 253.538 153.709 252.498C150.798 251.458 147.055 257.073 154.541 257.489Z" fill="white"/>
    <path d="M173.052 185.116C172.22 185.116 170.972 185.116 169.933 184.909C169.725 184.909 169.517 184.701 169.517 184.493C169.517 184.285 169.725 184.077 169.933 184.077C173.26 184.701 175.756 184.077 175.756 184.077C175.964 184.077 176.172 184.077 176.38 184.493C176.38 184.701 176.38 184.909 175.964 185.116C176.172 184.701 174.924 185.116 173.052 185.116Z" fill="#282A29"/>
    <path d="M170.558 191.98H170.35C169.31 191.98 168.27 191.772 167.23 191.772C167.022 191.772 166.814 191.564 166.814 191.356C166.814 191.148 167.022 190.94 167.23 190.94C168.27 191.148 169.31 191.148 170.142 191.148C172.845 191.148 174.301 190.524 174.301 190.524C174.509 190.524 174.717 190.524 174.925 190.732C174.925 190.94 174.925 191.148 174.717 191.356C174.717 191.356 173.261 191.98 170.558 191.98Z" fill="#282A29"/>
    <path d="M34.3367 188.653C33.0889 188.653 32.465 188.445 32.257 188.445C32.049 188.445 31.8411 188.029 32.049 187.821C32.049 187.613 32.465 187.405 32.673 187.613C32.673 187.613 35.1686 188.445 38.0801 186.989C38.2881 186.781 38.496 186.989 38.704 187.197C38.912 187.405 38.704 187.613 38.496 187.821C36.8323 188.445 35.3765 188.653 34.3367 188.653Z" fill="#282A29"/>
    <path d="M36.4168 194.267C36.0009 194.267 35.7929 194.267 35.7929 194.267C35.5849 194.267 35.377 194.059 35.377 193.851C35.377 193.643 35.5849 193.435 35.7929 193.435C35.7929 193.435 38.0806 193.643 40.1602 192.187C40.3682 191.979 40.5761 191.979 40.7841 192.187C40.9921 192.395 40.9921 192.603 40.7841 192.811C39.1204 194.059 37.2487 194.267 36.4168 194.267Z" fill="#282A29"/>
    <path d="M173.882 251.875C173.882 251.875 174.09 250.419 174.506 247.923C174.714 245.428 175.338 241.684 175.754 237.317C175.962 235.029 176.17 232.742 175.962 230.246C175.962 227.751 175.754 225.047 174.922 222.551C174.09 220.056 172.635 217.56 170.555 215.481C168.475 213.401 165.772 212.153 163.068 211.113C160.365 210.073 157.453 209.45 154.542 209.034L152.462 208.826C151.63 208.826 151.006 208.618 150.382 208.826C149.758 209.034 149.134 209.242 148.718 209.657C148.303 210.073 148.095 210.697 147.679 211.321C146.431 213.817 145.391 216.312 144.559 218.6C143.727 220.888 142.895 223.175 142.271 225.255C139.568 233.782 137.904 239.397 137.904 239.397C137.904 239.605 137.696 239.605 137.488 239.605C137.28 239.605 137.28 239.397 137.28 239.189C137.28 239.189 137.696 237.733 138.32 235.237C138.944 232.742 139.984 229.206 141.44 224.839C142.064 222.759 142.895 220.472 143.727 217.976C144.559 215.481 145.599 212.985 146.847 210.489C147.263 209.865 147.471 209.242 148.095 208.618C148.718 207.994 149.342 207.786 150.174 207.578C151.006 207.37 151.838 207.578 152.462 207.578L154.542 207.994C157.453 208.41 160.365 209.242 163.068 210.073C165.772 211.113 168.683 212.361 170.971 214.233C173.259 216.312 174.922 218.808 175.754 221.512C176.586 224.215 176.794 226.919 177.002 229.622C177.002 232.118 176.794 234.613 176.586 236.901C176.17 241.268 175.546 245.012 175.13 247.507C174.714 250.003 174.506 251.459 174.506 251.459C174.506 251.667 174.298 251.667 174.09 251.667C174.09 252.291 173.882 252.083 173.882 251.875Z" fill="#182230"/>
    <path d="M179.498 216.936C177.834 213.193 174.715 210.489 172.219 209.449C169.724 208.409 168.06 208.409 168.06 208.825C167.852 209.241 169.308 209.865 171.179 211.321C173.051 212.777 175.131 215.064 176.586 218.184C178.042 221.303 178.458 224.631 178.666 226.918C178.874 229.206 179.082 230.87 179.498 230.87C179.914 230.87 180.538 229.414 180.954 226.918C181.37 224.423 181.162 220.679 179.498 216.936Z" fill="#FFF8DC"/>
    <path d="M170.406 59.5268L160.567 55.677L169.336 49.4746L169.978 38.5669L178.533 44.9832L189.013 42.4167L185.591 52.6827L191.366 61.6656H180.672L173.614 69.7928L170.406 59.5268Z" fill="#ECA323"/>
    <path d="M37.4057 23.3129L27.5674 19.4631L36.3363 13.2607L36.9779 2.56689L45.533 8.98319L56.013 6.20279L52.591 16.4689L58.3656 25.4517H47.6718L40.8278 33.7928L37.4057 23.3129Z" fill="#ECA323"/>
    <path d="M7.03081 186.333L1.45508 184.152L6.42475 180.636L6.78844 174.455L11.6369 178.091L17.5763 176.636L15.6369 182.455L18.9097 187.546H12.849L8.84899 192.152L7.03081 186.333Z" fill="#ECA323"/>
    <defs>
        <linearGradient id="paint0_linear_461_3435" x1="110.661" y1="209.865" x2="110.661" y2="237.733" gradientUnits="userSpaceOnUse">
            <stop stop-color="#ECA323"/>
            <stop offset="1" stop-color="#EC8536"/>
        </linearGradient>
        <linearGradient id="paint1_linear_461_3435" x1="119.853" y1="226.294" x2="119.853" y2="237.814" gradientUnits="userSpaceOnUse">
            <stop stop-color="#ECA323"/>
            <stop offset="1" stop-color="#EC8536"/>
        </linearGradient>
        <linearGradient id="paint2_linear_461_3435" x1="81.6499" y1="215.896" x2="81.6499" y2="237.788" gradientUnits="userSpaceOnUse">
            <stop stop-color="#ECA323"/>
            <stop offset="1" stop-color="#EC8536"/>
        </linearGradient>
        <linearGradient id="paint3_linear_461_3435" x1="95.271" y1="210.073" x2="95.271" y2="224.631" gradientUnits="userSpaceOnUse">
            <stop stop-color="#ECA323"/>
            <stop offset="1" stop-color="#EC8536"/>
        </linearGradient>
        <linearGradient id="paint4_linear_461_3435" x1="94.7103" y1="96.7314" x2="94.7103" y2="202.536" gradientUnits="userSpaceOnUse">
            <stop stop-color="#ECA323"/>
            <stop offset="1" stop-color="#EC8536"/>
        </linearGradient>
        <linearGradient id="paint5_linear_461_3435" x1="78.5267" y1="102.347" x2="78.5267" y2="202.587" gradientUnits="userSpaceOnUse">
            <stop stop-color="#ECA323"/>
            <stop offset="1" stop-color="#EC8536"/>
        </linearGradient>
        <linearGradient id="paint6_linear_461_3435" x1="160.139" y1="191.981" x2="160.139" y2="252.083" gradientUnits="userSpaceOnUse">
            <stop stop-color="#ECA323"/>
            <stop offset="1" stop-color="#EC8536"/>
        </linearGradient>
        <linearGradient id="paint7_linear_461_3435" x1="157.138" y1="208.377" x2="157.138" y2="252.082" gradientUnits="userSpaceOnUse">
            <stop stop-color="#ECA323"/>
            <stop offset="1" stop-color="#EC8536"/>
        </linearGradient>
        <linearGradient id="paint8_linear_461_3435" x1="171.547" y1="166.374" x2="171.547" y2="176.23" gradientUnits="userSpaceOnUse">
            <stop stop-color="#ECA323"/>
            <stop offset="1" stop-color="#EC8536"/>
        </linearGradient>
    </defs>
</svg>
