
<svg width="268" height="226" viewBox="0 0 268 226" fill="none" xmlns="http://www.w3.org/2000/svg">
    <path d="M187.521 144.294C187.717 142.533 187.325 134.319 185.565 133.145C184.783 132.558 154.076 125.517 136.669 130.211C135.691 132.558 136.474 138.622 138.625 140.186C140.19 141.164 162.877 135.101 187.521 144.294Z" fill="#182230"/>
    <path d="M148.405 51.1953C148.405 51.1953 64.8903 54.5202 62.1521 55.4982C61.1742 60.7789 60.1963 177.347 60.1963 177.347L105.376 208.836L187.13 203.36L191.433 169.132L151.925 149.574L141.559 83.4666L189.673 89.9209L191.433 66.0597L148.405 51.1953Z" fill="white"/>
    <path d="M148.404 51.3912L105.375 53.347L83.8612 54.3249L73.1041 54.9117L67.8234 55.3029L65.0852 55.4984C64.1073 55.4984 63.3249 55.694 62.5426 55.8896L62.7382 55.4984C62.5426 58.041 62.5426 60.5836 62.347 63.1262L62.1514 70.754L61.9558 86.0095L61.5646 116.521L60.7823 177.347L60.5867 176.956L105.767 208.445H105.571L187.325 202.969L187.129 203.164L191.432 168.741L191.628 169.133L151.924 149.77C151.729 149.77 151.729 149.574 151.729 149.379L141.363 83.2713C141.363 83.0757 141.558 82.8802 141.754 82.8802C141.754 82.8802 141.754 82.8802 141.95 82.8802L190.063 89.3344L189.672 89.7256L191.432 65.8644L191.628 66.2555L148.404 51.3912ZM148.599 51L191.628 65.6688C191.823 65.6688 191.823 65.8644 191.823 66.06L190.063 89.9212C190.063 90.1168 189.868 90.3124 189.672 90.3124L141.558 83.8581L141.95 83.4669L152.316 149.574L152.12 149.183L191.628 168.741C191.823 168.741 191.823 168.937 191.823 169.133L187.325 203.36C187.325 203.555 187.129 203.555 187.129 203.555L105.375 209.032H105.18L60.1956 177.738C60 177.738 60 177.543 60 177.347L60.5867 116.521L60.9779 86.0095L61.3691 70.754L61.5646 63.1262C61.7602 60.5836 61.7603 58.041 61.9558 55.4984C61.9558 55.3029 62.1514 55.3029 62.1514 55.3029C63.1294 55.1073 64.1073 54.9117 64.8896 54.9117L67.6278 54.7161L73.1041 54.3249L83.8612 53.7382L105.375 52.7603L148.599 51Z" fill="#182230"/>
    <path d="M104.985 70.3628L70.5626 84.2492L69.7803 155.637L152.121 149.574L150.556 85.6183L104.985 70.3628Z" fill="#F3ED9C"/>
    <path d="M113.396 74.6655L79.169 88.3564L78.3867 159.549L160.532 153.681L164.052 89.3343L113.396 74.6655Z" fill="#899596"/>
    <path d="M113.395 74.8607L79.1674 88.7471L79.363 88.356L79.1674 123.952L78.7762 159.548L78.385 159.157L119.458 156.419L160.53 153.485L160.139 153.877L161.704 121.605L163.464 89.3339L163.66 89.7251L113.395 74.8607ZM113.59 74.2739L164.246 88.9427C164.442 88.9427 164.442 89.1383 164.442 89.3339L162.877 121.605L161.117 153.877C161.117 154.072 160.921 154.268 160.726 154.268L119.653 157.201L78.5806 160.331C78.3851 160.331 78.1895 160.135 78.1895 159.94L78.385 124.343L78.7762 88.7471C78.7762 88.5515 78.9718 88.356 78.9718 88.356L113.59 74.2739C113.395 74.2739 113.395 74.2739 113.59 74.2739Z" fill="#182230"/>
    <path d="M102.052 171.285L191.629 169.133L187.326 203.36L105.572 208.837L102.052 171.285ZM189.869 89.9218L191.629 66.0605L102.834 67.6252L105.377 92.4644L189.869 89.9218Z" fill="white"/>
    <path d="M134.517 170.502C134.908 182.628 135.103 194.754 135.495 206.881L168.353 204.729L170.504 169.72L134.517 170.502Z" fill="url(#paint0_linear_461_3434)"/>
    <path d="M102.05 171.089C116.914 170.502 131.974 170.111 146.839 169.72C161.703 169.328 176.763 168.937 191.627 168.742H191.823C192.019 168.742 192.019 168.937 192.019 169.133L187.52 203.36C187.52 203.556 187.325 203.556 187.325 203.556L146.448 206.489C132.757 207.467 119.261 208.25 105.571 209.228C105.375 209.228 105.179 209.032 105.179 208.836L101.854 171.284C101.854 171.089 101.855 171.089 102.05 171.089ZM102.441 171.48L105.962 208.836L105.571 208.445C119.261 207.467 132.757 206.489 146.448 205.707L187.325 203.164L187.129 203.36L191.432 168.937L191.627 169.328H191.823C176.959 169.72 161.899 170.306 147.034 170.502C131.974 170.893 117.306 171.284 102.441 171.48Z" fill="#182230"/>
    <path d="M189.475 89.5297L191.04 65.8641L191.431 66.2553L169.135 66.6464L146.838 67.0376L102.44 67.6243L102.636 67.2332L105.374 92.0723L104.983 91.6812L126.106 90.8988L147.229 90.3121L189.475 89.5297ZM189.866 90.1165L147.62 91.4856L126.497 92.0723L105.374 92.6591C105.179 92.6591 104.983 92.4635 104.983 92.2679L102.44 67.4288C102.44 67.2332 102.44 67.2332 102.636 67.0376L147.034 66.0597L169.33 65.6685L191.627 65.2773C191.822 65.2773 192.018 65.4729 192.018 65.6685L190.062 89.5297C190.062 89.9209 189.866 90.1165 189.866 90.1165Z" fill="#182230"/>
    <path d="M79.3643 159.158L106.55 173.827L191.629 169.133L160.727 153.682L79.3643 159.158Z" fill="#BACACC"/>
    <path d="M80.3405 159.353C89.1418 164.047 97.943 168.741 106.549 173.435H106.353L127.672 172.262L148.99 171.088L191.628 168.937L191.432 169.524L160.53 154.268H160.725L140.385 155.637L120.044 157.006L80.3405 159.353ZM79.3626 158.962L120.044 156.028L140.385 154.659L160.725 153.29H160.921L191.823 168.741C192.019 168.741 192.019 168.937 192.019 169.132L191.823 169.328L149.186 171.871L127.867 173.044L106.549 174.218H106.353C97.3563 169.328 88.3594 164.438 79.3626 159.353C79.167 159.353 79.167 159.158 79.167 158.962H79.3626Z" fill="#182230"/>
    <path opacity="0.4" d="M115.546 157.984L131.779 156.81L133.735 157.788L117.501 158.766L115.546 157.984ZM154.858 163.069L171.678 162.091L169.527 161.113L152.707 162.091L154.858 163.069ZM149.186 160.135L165.811 159.157L163.659 158.179L147.23 159.157L149.186 160.135ZM143.319 157.201L159.552 156.224L157.401 155.246L141.167 156.419L143.319 157.201ZM120.826 160.918L122.782 161.895L139.407 160.918L137.451 159.94L120.826 160.918ZM144.883 163.656L142.927 162.678L126.107 163.656L128.063 164.634L144.883 163.656ZM121.218 167.176L104.202 168.154L105.962 169.132L123.173 168.154L121.218 167.176ZM148.599 165.612L131.584 166.589L133.539 167.567L150.751 166.589L148.599 165.612ZM136.669 169.328L138.624 170.306L156.227 169.328L154.271 168.35L136.669 169.328ZM175.785 164.047L158.77 165.025L160.725 166.003L177.937 165.025L175.785 164.047ZM181.849 166.981L164.442 167.959L166.397 168.936L184 167.959L181.849 166.981ZM105.962 158.571L89.7285 159.744L91.4888 160.722L107.722 159.744L105.962 158.571ZM111.047 161.504L94.6181 162.482L96.3784 163.46L113.003 162.482L111.047 161.504ZM108.896 170.892L110.656 171.87L128.259 170.892L126.498 169.914L108.896 170.892ZM116.132 164.242L99.3122 165.22L101.072 166.198L117.893 165.22L116.132 164.242Z" fill="#BACACC"/>
    <path opacity="0.5" d="M125.717 169.915C140.407 169.915 152.316 167.55 152.316 164.634C152.316 161.717 140.407 159.353 125.717 159.353C111.026 159.353 99.1172 161.717 99.1172 164.634C99.1172 167.55 111.026 169.915 125.717 169.915Z" fill="#899596"/>
    <path d="M162.683 113C162.683 110.458 107.528 110.262 107.528 112.805C107.528 113.391 113.591 162.874 113.591 163.265C113.591 165.808 122.197 167.959 132.759 167.959C143.32 167.959 151.926 165.808 151.926 163.265C151.73 162.874 162.683 113.587 162.683 113Z" fill="url(#paint1_linear_461_3434)"/>
    <path d="M115.353 112.414C109.681 112.805 107.334 112.218 107.334 113C107.334 113.587 113.397 163.07 113.397 163.461C113.397 165.221 117.504 166.786 123.567 167.568L115.353 112.414Z" fill="#EC8536"/>
    <path d="M162.291 113.195C162.291 113.195 162.291 112.999 162.095 112.999C161.704 112.804 161.313 112.804 160.53 112.608C159.161 112.413 157.01 112.217 154.272 112.021C148.795 111.63 141.168 111.435 131.78 111.63C127.086 111.63 122 111.826 116.72 112.021C113.981 112.217 111.243 112.217 108.701 112.804C108.31 112.804 108.114 112.999 107.918 112.999C107.918 112.999 107.918 112.999 107.918 112.804V112.999V113.586C107.918 114.368 108.114 114.955 108.114 115.738C108.31 117.107 108.505 118.671 108.701 120.04C110.07 131.58 111.439 143.902 112.808 156.419L113.395 161.113L113.59 163.46C113.59 163.46 113.59 163.851 113.786 164.047C113.981 164.242 113.981 164.242 113.981 164.438C114.177 164.634 114.568 164.829 114.764 165.025C117.306 166.394 120.631 166.981 123.565 167.372C129.628 168.154 135.691 167.958 141.363 167.372C144.297 166.981 147.035 166.394 149.578 165.22C150.164 165.025 150.751 164.634 151.142 164.047C151.338 163.656 151.338 162.873 151.534 162.287C151.729 160.917 152.12 159.548 152.316 158.375C153.489 153.094 154.467 148.205 155.445 143.706C157.401 134.514 159.161 127.081 160.335 121.605C161.704 116.129 162.291 112.999 162.291 113.195ZM162.877 112.999C162.877 112.999 162.877 113.195 162.682 113.586C162.682 113.977 162.486 114.564 162.291 115.151C161.899 116.52 161.508 118.671 160.922 121.41C159.748 126.69 158.183 134.318 156.228 143.51C155.25 148.009 154.272 153.094 153.098 158.179C152.903 159.548 152.511 160.722 152.316 162.091L152.12 163.069C152.12 163.264 151.925 164.047 151.729 164.242C151.142 164.829 150.556 165.416 149.969 165.611C147.231 166.785 144.492 167.372 141.559 167.763C135.691 168.545 129.628 168.545 123.565 167.763C120.436 167.372 117.306 166.785 114.568 165.22C114.177 165.025 113.981 164.829 113.59 164.438C113.395 164.242 113.395 164.047 113.199 163.851C113.199 163.656 113.199 163.46 113.004 163.264L112.808 160.917L112.221 156.223C110.656 143.902 109.092 131.58 107.723 119.845C107.527 118.476 107.332 116.911 107.136 115.542C107.136 114.76 106.94 114.173 106.94 113.391V112.804V112.608C106.94 112.413 106.94 112.413 107.136 112.217L107.332 112.021C107.723 111.63 108.114 111.63 108.505 111.63C111.439 111.044 114.177 110.848 116.72 110.652C122 110.457 127.086 110.261 131.78 110.261C141.168 110.261 148.991 110.457 154.272 110.848C157.01 111.044 159.161 111.239 160.53 111.63C161.313 111.826 161.899 111.826 162.291 112.021C162.486 112.021 162.682 112.217 162.877 112.413C162.877 112.999 162.877 112.999 162.877 112.999Z" fill="#321FEF"/>
    <path d="M163.66 109.871C163.66 107.329 150.556 105.177 134.518 105.177C118.48 105.177 105.376 107.329 105.376 109.871C105.376 110.458 105.376 112.414 105.376 112.805C105.376 115.348 118.48 117.499 134.518 117.499C150.556 117.499 163.66 115.348 163.66 112.805C163.66 112.414 163.66 110.458 163.66 109.871Z" fill="#F5F5F5"/>
    <path d="M163.269 109.871C163.269 109.871 163.269 109.48 162.487 108.893C161.704 108.502 160.531 107.915 158.771 107.524C155.446 106.741 150.556 106.155 144.689 105.763C141.755 105.568 138.625 105.568 135.105 105.568C131.78 105.568 128.064 105.568 124.543 105.763C120.827 105.959 117.111 106.35 113.2 106.937C111.244 107.328 109.288 107.719 107.528 108.306C106.745 108.697 105.572 109.088 105.572 109.871V112.805C105.572 113.587 106.745 113.978 107.528 114.369C108.506 114.76 109.288 114.956 110.266 115.152C112.222 115.543 114.178 115.934 115.938 116.129C119.849 116.521 123.566 116.912 127.282 116.912C134.714 117.107 141.559 117.107 147.427 116.521C150.36 116.325 153.099 115.934 155.446 115.543C157.793 115.152 159.944 114.76 161.313 113.978C162.096 113.587 162.682 113.196 162.878 112.805C162.878 112.218 162.878 111.631 162.878 111.044C163.269 110.458 163.269 109.871 163.269 109.871ZM163.856 109.871C163.856 109.871 163.856 110.457 163.856 111.24C163.856 111.631 163.856 112.218 163.856 113C163.66 113.978 162.878 114.369 162.096 114.76C160.531 115.543 158.379 115.934 156.032 116.325C153.685 116.716 150.947 117.107 148.014 117.303C142.146 117.89 135.105 118.085 127.673 117.694C123.957 117.499 120.045 117.303 116.329 116.716C114.373 116.521 112.417 116.129 110.461 115.738C109.483 115.543 108.506 115.152 107.528 114.956C107.136 114.76 106.55 114.565 106.159 114.369C105.963 114.174 105.767 113.978 105.572 113.782C105.376 113.587 105.181 113.196 105.181 113V110.066C105.181 109.284 105.767 108.893 106.159 108.697C106.55 108.502 107.136 108.11 107.528 107.915C109.483 107.133 111.439 106.741 113.2 106.35C117.111 105.763 120.827 105.372 124.543 104.981C131.976 104.394 138.821 104.59 144.884 104.981C150.752 105.372 155.837 106.155 159.162 106.937C160.922 107.328 162.096 107.915 163.073 108.502C163.465 108.697 163.856 109.088 163.856 109.48C163.856 109.871 163.856 109.871 163.856 109.871Z" fill="#182230"/>
    <path d="M134.518 114.565C150.613 114.565 163.66 112.464 163.66 109.871C163.66 107.279 150.613 105.177 134.518 105.177C118.423 105.177 105.376 107.279 105.376 109.871C105.376 112.464 118.423 114.565 134.518 114.565Z" fill="#BFBFBF"/>
    <path d="M163.856 109.871C163.856 109.871 163.856 109.871 163.856 110.262C163.661 110.653 163.465 110.849 163.074 111.044C162.291 111.631 161.118 112.022 159.358 112.413C156.228 113.196 151.534 113.783 145.862 114.174C140.19 114.565 133.541 114.565 126.5 114.369C122.979 114.174 119.263 113.978 115.547 113.391C113.787 113.196 111.831 112.805 110.071 112.413C109.093 112.218 108.31 112.022 107.332 111.631C106.941 111.436 106.354 111.24 105.963 111.044C105.572 110.849 104.985 110.458 104.985 109.675C104.985 109.48 105.181 109.089 105.376 108.893C105.572 108.697 105.768 108.502 105.963 108.306C106.354 108.111 106.746 107.719 107.332 107.719C108.31 107.328 109.093 107.133 110.071 106.937C111.831 106.546 113.787 106.155 115.547 105.959C119.263 105.372 122.979 105.177 126.5 104.981C133.541 104.59 140.19 104.786 145.862 105.177C151.534 105.568 156.228 106.35 159.358 107.133C160.922 107.524 162.291 108.111 163.074 108.502C163.856 109.089 163.856 109.871 163.856 109.871ZM163.269 109.871C163.269 109.871 163.269 109.48 162.683 109.089C162.096 108.697 160.727 108.111 159.162 107.719C156.033 106.937 151.339 106.35 145.667 105.959C139.995 105.568 133.541 105.568 126.5 105.764C122.979 105.959 119.263 106.155 115.742 106.546C113.982 106.742 112.026 107.133 110.266 107.524C109.288 107.719 108.506 107.915 107.528 108.306C106.746 108.697 105.768 109.089 105.572 109.871C105.572 110.066 105.963 110.458 106.354 110.653C106.746 110.849 107.137 111.044 107.528 111.24C108.31 111.631 109.288 111.827 110.266 112.022C112.026 112.413 113.982 112.805 115.742 113C119.459 113.587 122.979 113.783 126.5 113.978C133.541 114.369 140.19 114.174 145.862 113.783C151.534 113.391 156.228 112.805 159.358 111.827C160.922 111.436 162.096 110.849 162.878 110.458C163.465 110.262 163.269 109.871 163.269 109.871Z" fill="#182230"/>
    <path d="M134.518 113.587C149.209 113.587 161.118 111.924 161.118 109.871C161.118 107.819 149.209 106.155 134.518 106.155C119.828 106.155 107.919 107.819 107.919 109.871C107.919 111.924 119.828 113.587 134.518 113.587Z" fill="#E1E1E1"/>
    <path d="M109.681 111.24C113.397 112.609 123.176 113.587 134.52 113.587C145.864 113.587 155.643 112.609 159.359 111.24C155.643 109.871 145.864 108.893 134.52 108.893C123.176 108.893 113.397 109.871 109.681 111.24Z" fill="#4F3732"/>
    <path d="M104.789 67.4287L62.1521 55.498C61.1742 61.17 60.1963 177.347 60.1963 177.347L105.181 208.836L106.158 173.826L81.906 158.962L85.8177 90.7031L104.789 92.2678V67.4287Z" fill="#CECECE"/>
    <path d="M104.593 67.625L62.1514 55.89L62.7382 55.4988C62.5426 58.0414 62.5426 60.584 62.347 63.1266L62.1514 70.7543L61.9558 86.0099L61.5646 116.521L60.7823 177.348L60.5867 177.152L105.571 208.641L105.18 208.837L106.158 173.827L106.353 174.218L82.1009 159.549C81.9054 159.549 81.9054 159.354 81.9054 159.158L85.817 90.8995C85.817 90.7039 86.0126 90.5083 86.2082 90.5083L105.18 92.073L104.789 92.4642L104.593 67.625ZM104.984 67.4294L105.571 92.2686C105.571 92.4642 105.375 92.6597 105.18 92.6597L86.2082 91.0951L86.5994 90.7039L82.6877 158.963L82.4921 158.571L106.745 173.436C106.94 173.436 106.94 173.631 106.94 173.827L105.767 208.837C105.767 209.032 105.571 209.228 105.375 209.228H105.18L60.1956 177.739L60 177.543L60.5867 116.717C60.5867 106.546 60.7823 96.3758 60.9779 86.2055L61.3691 70.9499L61.5646 63.3222C61.7602 60.7796 61.7603 58.237 61.9558 55.6944C61.9558 55.4988 62.1514 55.3032 62.347 55.3032L104.789 67.4294C104.984 67.2338 104.984 67.4294 104.984 67.4294Z" fill="#182230"/>
    <path d="M184.586 133.732C183.804 137.253 183.804 142.338 184.977 145.076C185.564 146.445 192.018 148.596 192.41 147.032C192.996 143.902 195.148 130.603 192.018 130.016C187.129 129.038 185.76 129.038 184.586 133.732Z" fill="white"/>
    <path d="M191.238 148.01C189.282 148.01 185.175 146.641 184.588 145.272C183.414 142.338 183.414 137.057 184.197 133.732C184.979 130.798 185.761 129.038 188.304 129.038C189.282 129.038 190.455 129.234 192.02 129.625C196.127 130.407 192.802 146.445 192.802 147.227C192.802 147.423 192.411 148.01 191.238 148.01ZM188.304 129.82C186.544 129.82 185.761 130.407 184.979 133.928C184.197 137.057 184.197 142.338 185.37 144.88C185.761 145.663 189.282 147.227 191.238 147.227C191.824 147.227 192.02 147.032 192.02 147.032C193.389 140.578 194.171 130.994 192.02 130.407C190.455 130.016 189.282 129.82 188.304 129.82Z" fill="#282A29"/>
    <path d="M190.258 129.429C189.475 130.603 187.519 140.969 188.106 144.294C188.302 145.663 191.235 151.139 192.409 152.899C194.756 156.615 201.015 160.527 208.838 158.18C218.617 155.051 218.03 153.29 219.204 148.01C220.573 141.555 218.03 136.47 214.901 133.536C214.901 133.536 209.816 128.451 208.447 128.06C207.273 127.865 192.996 125.322 190.258 129.429Z" fill="white"/>
    <path d="M204.145 159.354C198.473 159.354 193.975 156.225 192.215 153.095C191.237 151.531 188.108 145.859 187.912 144.294C187.325 140.969 189.085 130.603 190.063 129.234C191.237 127.474 193.975 126.691 198.669 126.691C203.168 126.691 208.057 127.474 208.839 127.865C210.209 128.256 214.902 132.95 215.489 133.341C217.054 134.71 221.748 139.991 219.792 148.206C219.597 148.792 219.597 149.184 219.401 149.77C218.619 154.073 218.032 156.029 209.035 158.767C207.47 159.158 205.71 159.354 204.145 159.354ZM198.473 127.474C194.171 127.474 191.432 128.256 190.65 129.625C189.868 130.799 188.108 140.969 188.499 144.294C188.694 145.663 191.628 150.944 192.802 152.9C194.562 155.833 198.669 158.767 204.145 158.767C205.71 158.767 207.275 158.572 208.839 157.985C217.445 155.247 217.836 153.682 218.619 149.575C218.619 149.184 218.814 148.597 219.01 148.01C220.77 140.187 216.272 135.297 214.903 133.928C212.947 131.972 209.426 128.843 208.448 128.647C207.862 128.452 203.167 127.474 198.473 127.474Z" fill="#282A29"/>
    <path d="M219.598 145.468C219.402 145.468 219.207 145.272 219.207 145.076C218.62 141.947 217.446 139.796 215.491 138.427C212.557 136.471 209.232 137.253 209.232 137.253C209.036 137.253 208.841 137.253 208.841 136.862C208.841 136.666 208.841 136.471 209.232 136.471C209.428 136.471 212.948 135.688 216.077 137.84C218.229 139.209 219.598 141.751 220.185 145.076C219.989 145.272 219.989 145.468 219.598 145.468Z" fill="#282A29"/>
    <path d="M212.752 131.972H212.556C208.645 129.625 205.711 130.407 205.711 130.407C205.515 130.407 205.32 130.407 205.124 130.212C205.124 130.016 205.124 129.82 205.32 129.625C205.515 129.625 208.645 128.647 212.752 131.385C212.947 131.581 212.947 131.776 212.947 131.972C213.143 131.776 212.947 131.972 212.752 131.972Z" fill="#282A29"/>
    <path d="M204.537 149.184C204.733 143.903 210.796 143.121 213.73 146.641C219.206 153.096 204.341 160.919 204.537 149.184Z" fill="#182230"/>
    <path d="M207.665 154.66L231.722 175.197C234.46 177.544 238.763 176.37 239.741 172.85C240.328 170.894 239.741 168.742 238.176 167.569C238.176 167.569 212.946 147.033 211.968 146.25C210.99 145.664 208.252 145.077 206.687 147.619C205.514 149.38 206.101 151.336 206.492 152.509C206.492 153.291 207.079 154.074 207.665 154.66Z" fill="#EC8933"/>
    <path d="M207.862 154.464L223.704 167.764C226.247 169.915 228.985 172.262 231.527 174.609C232.114 175.196 232.896 175.587 233.483 175.783C234.266 175.979 235.048 175.979 235.83 175.783C237.395 175.392 238.764 174.218 239.155 172.654C239.546 171.676 239.351 170.502 239.155 169.524C238.764 168.546 237.982 167.764 237.199 167.177L231.919 163.07L221.357 154.66L216.076 150.357L213.534 148.206C212.751 147.619 211.773 146.641 210.991 146.25C210.013 145.859 209.035 145.859 208.057 146.25C207.079 146.641 206.493 147.619 206.101 148.597C205.71 149.575 205.71 150.748 206.101 151.726C206.493 152.704 206.884 153.682 207.862 154.464ZM207.471 154.855C206.493 154.073 205.906 153.095 205.71 151.922C205.319 150.748 205.319 149.575 205.71 148.401C206.102 147.228 206.884 146.25 208.057 145.859C209.231 145.272 210.404 145.467 211.578 145.859C212.556 146.445 213.338 147.228 214.316 148.01L216.859 150.161L222.139 154.269L232.505 162.679L237.591 166.982C238.568 167.568 239.351 168.546 239.742 169.72C240.133 170.893 240.329 172.067 239.937 173.24C239.351 175.001 237.982 176.565 236.026 176.956C235.048 177.152 234.07 177.152 233.288 176.956C232.897 176.761 232.505 176.565 231.919 176.37C231.527 176.174 231.136 175.783 230.745 175.587C228.203 173.436 225.464 171.089 222.922 168.937L207.471 154.855Z" fill="#182230"/>
    <path d="M266.342 207.663L256.367 179.695C255.585 176.761 255.389 174.219 256.563 171.285L259.105 164.048L227.029 162.679L228.594 168.742C228.985 171.48 228.79 174.414 227.616 177.152L215.881 204.143C215.099 205.903 214.708 208.055 215.099 210.01C216.077 215.096 219.206 224.288 239.938 225.266C259.301 226.048 264.973 219.007 266.342 214.313C267.124 212.162 266.928 209.815 266.342 207.663Z" fill="#CDDEE0"/>
    <path d="M266.144 207.272C264.579 219.789 217.444 219.007 215.879 204.534C215.097 206.294 214.901 208.25 215.292 210.01C216.27 215.095 219.4 224.288 240.131 225.266C259.494 226.048 265.166 219.007 266.535 214.313C267.122 212.161 266.926 209.619 266.34 207.467L266.144 207.272Z" fill="#A9B8BA"/>
    <path d="M227.616 177.152C227.029 182.433 253.238 183.411 256.367 179.695C255.585 176.761 255.389 174.219 256.562 171.285L259.105 164.048L227.029 162.679L228.594 168.742C229.181 171.676 228.79 174.61 227.616 177.152Z" fill="#A9B8BA"/>
    <path d="M265.951 207.663L258.127 186.149L256.172 180.869C255.78 180.086 255.585 178.913 255.389 178.13C255.194 177.152 255.194 176.174 255.194 175.197C255.194 174.219 255.389 173.241 255.78 172.263L256.758 169.525L258.714 164.048L259.105 164.635L227.03 163.07L227.421 162.679L228.985 168.742C229.377 171.089 229.181 173.632 228.399 175.979C227.616 178.326 226.443 180.282 225.66 182.433L219.989 195.537L217.25 201.992C216.859 203.165 216.272 204.143 215.881 205.316C215.49 206.49 215.295 207.468 215.295 208.641C215.49 210.988 216.077 213.14 217.25 215.291C218.424 217.247 219.989 219.007 221.944 220.181C223.9 221.55 226.052 222.332 228.203 223.115C229.376 223.506 230.354 223.701 231.528 223.897C232.701 224.093 233.875 224.288 235.048 224.484C236.222 224.679 237.396 224.679 238.569 224.875C239.743 225.07 240.916 225.07 242.09 225.07C244.437 225.07 246.783 225.07 249.13 224.875C251.477 224.484 253.825 224.288 255.976 223.506C258.127 222.723 260.279 221.746 262.039 220.181C263.799 218.812 265.168 216.856 265.951 214.509C266.929 212.357 266.733 209.815 265.951 207.663ZM266.537 207.468C267.32 209.815 267.515 212.357 266.733 214.704C265.951 217.051 264.582 219.007 262.626 220.572C260.67 222.137 258.519 223.115 256.367 223.897C254.02 224.679 251.673 225.07 249.326 225.462C246.979 225.657 244.632 225.853 242.285 225.853C239.938 225.853 237.591 225.657 235.244 225.462C234.071 225.266 232.897 225.07 231.724 224.875C230.55 224.679 229.376 224.288 228.203 224.093C225.856 223.31 223.705 222.528 221.749 221.159C219.793 219.79 218.033 218.029 216.859 215.878C215.686 213.727 215.099 211.38 214.903 209.033C214.903 207.859 215.099 206.49 215.49 205.512C215.881 204.339 216.468 203.361 216.859 202.187L219.597 195.733L225.269 182.824C226.247 180.673 227.225 178.521 228.007 176.37C228.79 174.219 228.79 171.872 228.399 169.525L226.834 163.462C226.834 163.266 226.834 163.07 227.03 163.07C227.03 163.07 227.029 163.07 227.225 163.07L259.301 164.439C259.496 164.439 259.888 164.635 259.692 165.026V165.222L257.736 170.503L256.758 173.241C256.367 174.023 256.367 175.001 256.172 175.979C256.172 176.957 256.172 177.739 256.367 178.717C256.563 179.695 256.758 180.477 257.149 181.455L259.105 186.932L266.537 207.468Z" fill="#182230"/>
    <path d="M259.412 163.813C259.476 161.545 252.263 159.502 243.301 159.249C234.339 158.996 227.022 160.629 226.958 162.896C226.894 165.164 234.107 167.207 243.069 167.46C252.031 167.713 259.348 166.08 259.412 163.813Z" fill="#DBEEF0"/>
    <path d="M259.886 163.853C259.886 163.853 259.886 163.853 259.886 164.048C259.886 164.244 259.69 164.439 259.494 164.635C259.103 165.026 258.517 165.613 257.539 166.004C255.778 166.786 253.04 167.373 249.715 167.569C246.39 167.764 242.479 167.764 238.567 167.373C236.611 167.178 234.46 166.786 232.308 166.395C231.33 166.2 230.157 165.808 229.179 165.417C228.592 165.222 228.201 164.831 227.81 164.635C227.419 164.244 226.832 163.853 226.832 163.07C226.832 162.288 227.419 161.897 227.81 161.506C228.201 161.114 228.788 160.919 229.375 160.723C230.353 160.332 231.526 159.941 232.504 159.745C234.655 159.354 236.807 159.159 238.763 158.963C242.87 158.767 246.782 158.963 250.106 159.55C253.431 160.137 255.974 160.723 257.93 161.701C258.712 162.092 259.494 162.679 259.886 163.07C259.886 163.461 259.886 163.853 259.886 163.853ZM259.299 163.853C259.299 163.853 259.299 163.657 259.103 163.266C258.908 162.875 258.321 162.484 257.539 162.092C255.778 161.31 253.236 160.528 249.911 160.137C246.586 159.745 242.87 159.55 238.763 159.745C236.807 159.745 234.655 159.941 232.504 160.332C231.526 160.528 230.353 160.723 229.375 161.114C228.397 161.506 227.223 162.092 227.223 162.875C227.223 163.657 228.397 164.439 229.375 164.831C230.353 165.222 231.33 165.613 232.308 165.808C234.46 166.395 236.416 166.591 238.567 166.982C242.674 167.373 246.39 167.373 249.715 167.178C253.04 166.982 255.583 166.395 257.343 165.613C258.125 165.222 258.712 164.831 259.103 164.439C259.299 164.244 259.299 164.244 259.299 163.853Z" fill="#182230"/>
    <path d="M258.615 163.62C258.67 161.677 251.8 159.906 243.27 159.665C234.74 159.424 227.78 160.804 227.725 162.748C227.67 164.692 234.541 166.462 243.071 166.703C251.601 166.944 258.56 165.564 258.615 163.62Z" fill="#BACACC"/>
    <path d="M228.789 164.048C230.94 165.418 236.417 166.591 243.067 166.787C249.521 166.982 254.997 166.2 257.344 165.026C255.193 163.657 249.717 162.484 243.067 162.288C236.612 162.093 231.136 162.875 228.789 164.048Z" fill="#4F3732"/>
    <path d="M127.296 133.539C127.85 129.69 126.912 126.37 125.201 126.124C123.49 125.878 121.655 128.799 121.102 132.648C120.548 136.497 121.486 139.817 123.197 140.062C124.908 140.308 126.743 137.388 127.296 133.539Z" fill="#101828"/>
    <path d="M124.312 131.46C124.496 130.177 124.299 129.088 123.872 129.026C123.444 128.965 122.948 129.955 122.763 131.238C122.579 132.521 122.776 133.611 123.204 133.672C123.632 133.734 124.128 132.743 124.312 131.46Z" fill="white"/>
    <path d="M155.408 132.289C155.961 128.44 155.023 125.12 153.312 124.874C151.602 124.628 149.766 127.549 149.213 131.398C148.66 135.247 149.598 138.567 151.308 138.812C153.019 139.058 154.854 136.138 155.408 132.289Z" fill="#101828"/>
    <path d="M152.445 130.015C152.629 128.732 152.432 127.642 152.004 127.58C151.577 127.519 151.081 128.509 150.896 129.792C150.712 131.075 150.909 132.165 151.337 132.226C151.765 132.288 152.261 131.298 152.445 130.015Z" fill="white"/>
    <path d="M142.927 145.272C143.709 144.099 145.078 145.272 143.905 146.641C139.015 153.096 130.018 147.424 131.779 145.859C132.365 145.272 133.148 146.055 133.539 146.446C137.255 148.793 140.776 148.597 142.927 145.272Z" fill="#101828"/>
    <path d="M119.827 81.2027C120.86 78.2456 119.796 75.1842 117.451 74.3648C115.105 73.5455 112.367 75.2785 111.333 78.2356C110.3 81.1927 111.364 84.2541 113.709 85.0734C116.055 85.8928 118.793 84.1598 119.827 81.2027Z" fill="#EBA324"/>
    <path d="M135.985 80.8741C137.018 77.917 135.954 74.8555 133.609 74.0362C131.264 73.2168 128.525 74.9498 127.492 77.9069C126.459 80.864 127.522 83.9254 129.868 84.7448C132.213 85.5642 134.952 83.8312 135.985 80.8741Z" fill="#EBA324"/>
    <path d="M138.626 106.155C138.626 106.155 139.604 97.7448 140.19 91.2905L128.26 91.6817C129.433 97.5492 130.216 103.808 130.802 105.959C130.998 107.328 138.43 107.524 138.626 106.155Z" fill="#182230"/>
    <path d="M145.862 72.3185L146.058 86.0094L184.979 85.0315L185.957 71.145L145.862 72.3185Z" fill="url(#paint2_linear_461_3434)"/>
    <g opacity="0.9">
        <path d="M135.202 79.1241C135.992 78.5572 135.968 77.1728 135.149 76.0322C134.33 74.8915 133.026 74.4265 132.236 74.9934C131.447 75.5604 131.471 76.9447 132.289 78.0854C133.108 79.226 134.412 79.6911 135.202 79.1241Z" fill="#EC8933"/>
        <path d="M119.006 79.2143C119.796 78.6472 119.772 77.2629 118.953 76.1222C118.134 74.9815 116.83 74.5165 116.04 75.0836C115.251 75.6507 115.274 77.035 116.093 78.1757C116.913 79.3163 118.217 79.7814 119.006 79.2143Z" fill="#EC8933"/>
    </g>
    <path d="M5.34408 97.8876L1.41504 92.8584L7.70151 92.2297L11.3163 86.8862L13.8308 92.7012L19.9602 94.43L15.2453 98.6734L15.5596 104.96L10.0589 101.817L4.08681 104.017L5.34408 97.8876Z" fill="#EBA324"/>
    <path d="M251.116 83.1309L243.887 80.302L250.33 75.7443L250.802 67.8862L257.088 72.6011L264.789 70.558L262.275 78.1017L266.518 84.7025H258.66L253.631 90.8319L251.116 83.1309Z" fill="#EBA324"/>
    <path d="M90.0867 12.7436L87.1006 8.97169L91.9726 8.34304L94.6444 4.25684L96.6875 8.81453L101.402 10.0718L97.7876 13.3722L97.9448 18.4014L93.7014 15.8868L89.1437 17.6156L90.0867 12.7436Z" fill="#EBA324"/>
    <path d="M189.344 12.8876L185.415 7.85838L191.702 7.22973L195.316 1.88623L197.831 7.70122L203.96 9.43L199.245 13.6734L199.56 19.9598L194.059 16.8166L188.087 19.0169L189.344 12.8876Z" fill="#EBA324"/>
    <defs>
        <linearGradient id="paint0_linear_461_3434" x1="152.51" y1="169.72" x2="152.51" y2="206.881" gradientUnits="userSpaceOnUse">
            <stop stop-color="#ECA323"/>
            <stop offset="1" stop-color="#EC8536"/>
        </linearGradient>
        <linearGradient id="paint1_linear_461_3434" x1="135.106" y1="110.993" x2="135.106" y2="167.959" gradientUnits="userSpaceOnUse">
            <stop stop-color="#ECA323"/>
            <stop offset="1" stop-color="#EC8536"/>
        </linearGradient>
        <linearGradient id="paint2_linear_461_3434" x1="165.91" y1="71.145" x2="165.91" y2="86.0094" gradientUnits="userSpaceOnUse">
            <stop stop-color="#ECA323"/>
            <stop offset="1" stop-color="#EC8536"/>
        </linearGradient>
    </defs>
</svg>
